<svg width="142" height="132" viewBox="0 0 142 132" fill="none" xmlns="http://www.w3.org/2000/svg">
<path d="M130.521 52.6294C129.031 49.8871 125.666 48.1503 120.84 48.058L32.8882 47.1098C23.503 47.0026 12.1375 53.242 7.51582 61.0462C5.2585 64.8579 5.03839 68.3304 6.49207 70.8997L11.1219 79.1154C12.6447 81.7838 15.9764 83.4779 20.7565 83.531L108.716 84.4844C118.102 84.5916 129.459 78.3471 134.08 70.5429C136.322 66.7569 136.565 63.2861 135.138 60.7097C134.33 59.3475 131.267 54.0006 130.521 52.6294Z" fill="#E0E0E0"/>
<path d="M14.0991 81.5062C10.1411 79.1622 9.53498 74.5729 12.5159 69.5393C17.0458 61.89 28.23 55.7408 37.4403 55.849L125.4 56.8024C127.708 56.755 129.988 57.3049 132.021 58.3987C135.979 60.7426 136.585 65.3319 133.604 70.3655C129.069 78.0234 117.89 84.1641 108.675 84.0644L20.7146 83.1111C18.4074 83.16 16.1274 82.6068 14.0991 81.5062Z" fill="#FAFAFA"/>
<path d="M131.786 58.7945C135.478 60.9804 136.052 65.3299 133.224 70.1053C128.77 77.6255 117.782 83.6587 108.759 83.51L20.7988 82.5566C18.5783 82.6084 16.3821 82.0845 14.424 81.0361C13.5903 80.5795 12.8724 79.9379 12.3254 79.1607C11.7784 78.3834 11.4167 77.4911 11.2683 76.5523C11.0398 74.1502 11.6448 71.7426 12.9818 69.7339C17.4302 62.2222 28.4178 56.189 37.4465 56.3292L125.406 57.2825C127.627 57.2308 129.823 57.7546 131.781 58.8031M132.291 57.9426C130.183 56.7995 127.812 56.2289 125.414 56.2878L37.4545 55.3344C28.0642 55.2358 16.7124 61.4717 12.0908 69.2759C8.85509 74.7397 9.77444 79.5262 13.8787 81.9567C15.9864 83.0972 18.3542 83.6704 20.7501 83.6202L108.71 84.5736C118.095 84.6808 129.452 78.4362 134.074 70.6321C137.309 65.1683 136.39 60.3818 132.286 57.9512L132.291 57.9426Z" fill="#EBEBEB"/>
<path d="M42.7447 69.8336C43.307 69.4925 43.5697 68.9507 43.4275 68.6806L41.9824 66.1164C41.9502 66.0647 41.906 66.0215 41.8536 65.9905C41.8012 65.9594 41.7421 65.9414 41.6812 65.938L39.2092 65.5201L39.3823 63.7166C39.3907 63.6275 39.3703 63.5381 39.3243 63.4614L37.8843 60.8886C37.7007 60.5707 37.0357 60.6534 36.5086 61.1314L32.4857 64.8042C32.2511 65.03 31.9524 65.1779 31.6306 65.2275L27.1748 65.7848C26.4652 65.8644 25.7358 66.6643 25.9408 67.1228L27.2044 70.0328C27.2341 70.1563 27.2328 70.2852 27.2005 70.4081C27.1683 70.5309 27.1062 70.6439 27.0198 70.737L23.9115 74.7886C23.6799 75.0815 23.6472 75.3526 23.7476 75.5167L25.1876 78.0895C25.3036 78.286 25.6178 78.3442 26.0182 78.1979L30.8232 76.3249C30.9369 76.2632 31.0645 76.2315 31.1938 76.2328C31.3232 76.2342 31.4501 76.2685 31.5624 76.3326L34.1289 78.2593C34.5235 78.5743 35.4999 78.0833 35.7741 77.4437L37.4759 73.3728C37.6165 73.0806 37.8415 72.8374 38.1219 72.6745L42.7447 69.8336Z" fill="#EC5E63"/>
<path opacity="0.15" d="M43.4119 68.6481C43.3774 68.5984 43.3327 68.5568 43.2808 68.526C43.2288 68.4953 43.1708 68.4761 43.1107 68.4697L39.3546 67.8259C39.3031 67.822 39.2531 67.8075 39.2076 67.7831C39.1621 67.7588 39.1222 67.7252 39.0905 67.6845C39.0588 67.6439 39.0359 67.597 39.0233 67.5469C39.0108 67.4969 39.0089 67.4448 39.0176 67.394L39.1987 65.479L41.6656 65.9055C41.7263 65.9097 41.785 65.928 41.8373 65.959C41.8896 65.99 41.934 66.0327 41.9668 66.0839L43.4119 68.6481Z" fill="white"/>
<path opacity="0.15" d="M33.9103 67.3445C33.6742 67.5682 33.3763 67.7158 33.0552 67.7679L28.6044 68.3166C28.3991 68.3428 28.2031 68.418 28.0329 68.5359L26.5929 65.9631C26.7659 65.8507 26.9607 65.7759 27.1645 65.7437L31.6152 65.1951C31.934 65.1462 32.2305 65.0016 32.4652 64.7803L33.9103 67.3445Z" fill="white"/>
<path opacity="0.1" d="M39.321 63.4477C39.1527 63.1039 38.4791 63.1816 37.9331 63.6718L33.9102 67.3445L32.4703 64.7717L36.4931 61.099C37.0203 60.6209 37.6853 60.5382 37.8689 60.8561C37.9291 60.8918 39.1253 63.111 39.3175 63.434L39.321 63.4477Z" fill="black"/>
<path opacity="0.25" d="M28.6289 72.5731L27.1959 70.0277L25.9324 67.1177C25.7863 66.7755 26.1265 66.2796 26.5999 65.9905L28.0399 68.5633C27.5716 68.8439 27.2263 69.3483 27.3723 69.6905L28.6289 72.5731Z" fill="black"/>
<path opacity="0.15" d="M25.3703 77.3493C25.1817 77.6676 25.106 77.9133 25.2185 78.0962L23.7699 75.5183C23.7266 75.3939 23.7199 75.2597 23.7505 75.1316C23.781 75.0034 23.8476 74.8867 23.9424 74.7952L27.0507 70.7437C27.1334 70.6537 27.1938 70.5456 27.2271 70.4281C27.2604 70.3105 27.2656 70.1868 27.2423 70.0668L28.6753 72.6123C28.7003 72.7304 28.6964 72.8529 28.6639 72.9692C28.6314 73.0856 28.5713 73.1923 28.4887 73.2805L25.3703 77.3493Z" fill="black"/>
<path d="M39.3669 63.6841L39.0127 67.4026C39.0039 67.4534 39.0059 67.5055 39.0184 67.5556C39.031 67.6056 39.0538 67.6525 39.0855 67.6931C39.1173 67.7338 39.1572 67.7674 39.2026 67.7918C39.2481 67.8161 39.2982 67.8307 39.3496 67.8345L43.1057 68.4784C43.6997 68.5744 43.49 69.38 42.7448 69.8336L38.0774 72.6713C37.7971 72.8342 37.5721 73.0775 37.4315 73.3696L35.7296 77.4406C35.4554 78.0802 34.479 78.5711 34.0844 78.2561L31.547 76.3002C31.4346 76.2361 31.3077 76.2017 31.1784 76.2004C31.049 76.199 30.9215 76.2307 30.8078 76.2924L26.0372 78.1858C25.2672 78.4852 24.8767 77.9867 25.3755 77.3407L28.4838 73.2891C28.5718 73.197 28.6349 73.0841 28.6672 72.9609C28.6995 72.8377 28.7 72.7083 28.6684 72.5849L27.3997 69.6835C27.1998 69.2164 27.9327 68.4302 28.6388 68.337L33.0895 67.7882C33.4114 67.7386 33.71 67.5908 33.9446 67.3649L37.9675 63.6922C38.5711 63.085 39.4132 63.0956 39.3669 63.6841Z" fill="#EC5E63"/>
<path opacity="0.5" d="M39.3669 63.6841L39.0127 67.4026C39.0039 67.4534 39.0059 67.5055 39.0184 67.5556C39.031 67.6056 39.0538 67.6525 39.0855 67.6931C39.1173 67.7338 39.1572 67.7674 39.2026 67.7918C39.2481 67.8161 39.2982 67.8307 39.3496 67.8345L43.1057 68.4784C43.6997 68.5744 43.49 69.38 42.7448 69.8336L38.0774 72.6713C37.7971 72.8342 37.5721 73.0775 37.4315 73.3696L35.7296 77.4406C35.4554 78.0802 34.479 78.5711 34.0844 78.2561L31.547 76.3002C31.4346 76.2361 31.3077 76.2017 31.1784 76.2004C31.049 76.199 30.9215 76.2307 30.8078 76.2924L26.0372 78.1858C25.2672 78.4852 24.8767 77.9867 25.3755 77.3407L28.4838 73.2891C28.5718 73.197 28.6349 73.0841 28.6672 72.9609C28.6995 72.8377 28.7 72.7083 28.6684 72.5849L27.3997 69.6835C27.1998 69.2164 27.9327 68.4302 28.6388 68.337L33.0895 67.7882C33.4114 67.7386 33.71 67.5908 33.9446 67.3649L37.9675 63.6922C38.5711 63.085 39.4132 63.0956 39.3669 63.6841Z" fill="white"/>
<path d="M63.378 70.0819C63.9402 69.7408 64.1892 69.2025 64.0557 68.9375L62.6192 66.3784C62.5855 66.3257 62.5399 66.2817 62.4861 66.2498C62.4323 66.218 62.3718 66.1992 62.3094 66.1949L59.846 65.7821L60.0105 63.9735C60.0251 63.8869 60.0075 63.7979 59.9611 63.7234L58.5211 61.1506C58.3375 60.8326 57.6725 60.9153 57.1453 61.3934L53.0469 65.0563C52.8098 65.2785 52.5124 65.4258 52.1919 65.4797L47.7412 66.0284C47.0265 66.1165 46.2971 66.9164 46.4935 67.3698L47.7656 70.2849C47.7952 70.4082 47.793 70.5371 47.7592 70.6593C47.7254 70.7816 47.6611 70.8933 47.5724 70.984L44.4727 75.0407C44.2412 75.3336 44.1998 75.5997 44.3003 75.7637L45.7399 78.2782C45.8559 78.4748 46.1615 78.5279 46.5706 78.3866L51.3756 76.5136C51.4893 76.4519 51.6168 76.4202 51.7462 76.4216C51.8755 76.4229 52.0024 76.4573 52.1148 76.5214L54.6522 78.4773C55.0519 78.7837 56.0232 78.3014 56.2974 77.6618L58.0079 73.596C58.1447 73.3012 58.3707 73.057 58.6538 72.8977L63.378 70.0819Z" fill="#EC5E63"/>
<path opacity="0.15" d="M64.0089 68.8983C63.974 68.8491 63.9292 68.8078 63.8773 68.7771C63.8254 68.7464 63.7676 68.7269 63.7077 68.7199L59.9258 68.0608C59.8736 68.0567 59.8229 68.0419 59.7768 68.0173C59.7306 67.9926 59.6901 67.9587 59.6577 67.9177C59.6252 67.8767 59.6016 67.8294 59.5883 67.7788C59.575 67.7283 59.5722 67.6755 59.5802 67.6238L59.7699 65.7139L62.2282 66.1354C62.2904 66.1404 62.3506 66.1595 62.4043 66.1913C62.458 66.223 62.5037 66.2667 62.538 66.3188L64.0089 68.8983Z" fill="white"/>
<path opacity="0.15" d="M54.5126 67.5861C54.2765 67.8098 53.9785 67.9574 53.6575 68.0095L49.1657 68.5687C48.9603 68.5949 48.7642 68.6701 48.5941 68.7881L47.1713 66.2254C47.3495 66.1181 47.5463 66.0454 47.7515 66.0111L52.2022 65.4625C52.5227 65.4086 52.8202 65.2613 53.0573 65.0391L54.5126 67.5861Z" fill="white"/>
<path opacity="0.1" d="M59.9231 63.6893C59.7548 63.3455 59.0813 63.4232 58.5353 63.9134L54.5124 67.5861L53.0469 65.0563L57.0698 61.3836C57.597 60.9055 58.262 60.8228 58.4456 61.1407C58.5058 61.1764 59.7019 63.3956 59.8907 63.7049L59.9231 63.6893Z" fill="black"/>
<path opacity="0.25" d="M49.2359 72.8061L47.7979 70.2693L46.5343 67.3593C46.3969 67.0222 46.737 66.5263 47.2018 66.2321L48.6504 68.81C48.1821 69.0906 47.8369 69.595 47.988 69.9286L49.2359 72.8061Z" fill="black"/>
<path opacity="0.15" d="M45.9433 77.5619C45.7067 77.8634 45.6739 78.1345 45.7779 78.3123L44.3379 75.7395C44.2426 75.5668 44.2788 75.3094 44.5104 75.0165L47.6187 70.9649C47.6995 70.8737 47.7586 70.7655 47.7918 70.6483C47.825 70.5312 47.8313 70.408 47.8103 70.2881L49.2483 72.8248C49.2734 72.943 49.2695 73.0655 49.237 73.1818C49.2045 73.2982 49.1444 73.405 49.0618 73.4931L45.9433 77.5619Z" fill="black"/>
<path d="M59.9604 63.9206L59.6062 67.6391C59.5982 67.6908 59.6009 67.7436 59.6142 67.7942C59.6276 67.8447 59.6512 67.892 59.6836 67.933C59.7161 67.9741 59.7566 68.0079 59.8027 68.0326C59.8489 68.0572 59.8996 68.072 59.9517 68.0762L63.7079 68.72C64.3018 68.816 64.0921 69.6216 63.3521 70.0666L58.6796 72.913C58.3964 73.0723 58.1704 73.3166 58.0336 73.6113L56.3231 77.6771C56.0576 78.3218 55.0862 78.8041 54.678 78.4926L52.1405 76.5367C52.0281 76.4726 51.9013 76.4382 51.7719 76.4369C51.6425 76.4355 51.515 76.4672 51.4013 76.5289L46.5963 78.4019C45.8263 78.7013 45.4358 78.2028 45.9346 77.5568L49.0429 73.5052C49.1294 73.4122 49.1915 73.2992 49.2237 73.1763C49.2559 73.0534 49.2572 72.9245 49.2275 72.801L47.9588 69.8997C47.7589 69.4326 48.4832 68.6412 49.1979 68.5531L53.6486 68.0044C53.9705 67.9548 54.2691 67.8069 54.5037 67.581L58.5266 63.9083C59.1732 63.3266 60.0001 63.363 59.9604 63.9206Z" fill="#EC5E63"/>
<path opacity="0.5" d="M59.9604 63.9206L59.6062 67.6391C59.5982 67.6908 59.6009 67.7436 59.6142 67.7942C59.6276 67.8447 59.6512 67.892 59.6836 67.933C59.7161 67.9741 59.7566 68.0079 59.8027 68.0326C59.8489 68.0572 59.8996 68.072 59.9517 68.0762L63.7079 68.72C64.3018 68.816 64.0921 69.6216 63.3521 70.0666L58.6796 72.913C58.3964 73.0723 58.1704 73.3166 58.0336 73.6113L56.3231 77.6771C56.0576 78.3218 55.0862 78.8041 54.678 78.4926L52.1405 76.5367C52.0281 76.4726 51.9013 76.4382 51.7719 76.4369C51.6425 76.4355 51.515 76.4672 51.4013 76.5289L46.5963 78.4019C45.8263 78.7013 45.4358 78.2028 45.9346 77.5568L49.0429 73.5052C49.1294 73.4122 49.1915 73.2992 49.2237 73.1763C49.2559 73.0534 49.2572 72.9245 49.2275 72.801L47.9588 69.8997C47.7589 69.4326 48.4832 68.6412 49.1979 68.5531L53.6486 68.0044C53.9705 67.9548 54.2691 67.8069 54.5037 67.581L58.5266 63.9083C59.1732 63.3266 60.0001 63.363 59.9604 63.9206Z" fill="white"/>
<path d="M83.9541 70.3082C84.5078 69.962 84.7654 69.4289 84.6318 69.1638L83.1457 66.6101C83.1099 66.5594 83.0638 66.5169 83.0104 66.4853C82.957 66.4537 82.8976 66.4337 82.8359 66.4267L80.3639 66.0087L80.537 64.2053C80.5516 64.1186 80.534 64.0297 80.4875 63.9552L79.0476 61.3823C78.8639 61.0644 78.1904 61.142 77.6718 61.6252L73.6489 65.2979C73.4118 65.5202 73.1144 65.6675 72.7939 65.7213L68.3345 66.2649C67.6285 66.3581 66.8955 67.1444 67.0955 67.6114L68.359 70.5214C68.3936 70.6446 68.3947 70.7748 68.3623 70.8986C68.3298 71.0223 68.265 71.1352 68.1744 71.2256L65.0661 75.2772C64.8776 75.5956 64.8069 75.8327 64.9022 76.0053L66.3422 78.5781C66.4669 78.7798 66.7724 78.8329 67.1815 78.6916L71.9779 76.8135C72.0931 76.751 72.2224 76.7193 72.3535 76.7216C72.4845 76.7238 72.6127 76.76 72.7257 76.8264L75.2546 78.7772C75.6628 79.0887 76.6342 78.6064 76.8997 77.9617L78.6102 73.8959C78.7471 73.6027 78.9693 73.3576 79.2476 73.1925L83.9541 70.3082Z" fill="#EC5E63"/>
<path opacity="0.15" d="M84.6114 69.1399C84.5752 69.0897 84.5289 69.0474 84.4756 69.0159C84.4223 68.9843 84.3631 68.9641 84.3016 68.9565L80.5541 68.3178C80.5019 68.3137 80.4512 68.2988 80.4051 68.2742C80.3589 68.2495 80.3184 68.2156 80.286 68.1746C80.2535 68.1336 80.2299 68.0863 80.2166 68.0358C80.2033 67.9852 80.2005 67.9324 80.2085 67.8807L80.3896 65.9657L82.8565 66.3923C82.9172 66.3965 82.976 66.4148 83.0282 66.4458C83.0805 66.4767 83.1249 66.5195 83.1577 66.5706L84.6114 69.1399Z" fill="white"/>
<path opacity="0.15" d="M75.1625 67.8446C74.9241 68.0694 74.6251 68.2195 74.3024 68.2766L69.8516 68.8252C69.6448 68.8532 69.4468 68.9264 69.2715 69.0395L67.8315 66.4667C68.0096 66.3594 68.2065 66.2867 68.4116 66.2524L72.8624 65.7037C73.1829 65.6499 73.4804 65.5026 73.7175 65.2804L75.1625 67.8446Z" fill="white"/>
<path opacity="0.1" d="M80.5403 63.9051C80.372 63.5614 79.6898 63.6339 79.1576 64.1206L75.1624 67.8446L73.7174 65.2804L77.7402 61.6077C78.2674 61.1296 78.9324 61.0469 79.116 61.3648C79.1762 61.4005 80.3637 63.6146 80.561 63.929L80.5403 63.9051Z" fill="black"/>
<path opacity="0.25" d="M69.8298 73.0426L68.4003 70.5109L67.116 67.577C66.9786 67.2399 67.3102 66.739 67.7836 66.4498L69.2235 69.0227C68.7638 69.3083 68.4186 69.8128 68.5611 70.1412L69.8298 73.0426Z" fill="black"/>
<path opacity="0.15" d="M66.5456 77.8035C66.3089 78.105 66.2762 78.3761 66.3801 78.5539L64.9401 75.9811C64.8448 75.8084 64.881 75.5509 65.104 75.253L68.2174 71.1928C68.2994 71.1051 68.3597 70.9995 68.3935 70.8843C68.4274 70.7692 68.4339 70.6477 68.4125 70.5296L69.842 73.0613C69.863 73.1796 69.8572 73.301 69.8249 73.4167C69.7926 73.5324 69.7347 73.6393 69.6555 73.7296L66.5456 77.8035Z" fill="black"/>
<path d="M80.5626 64.1622L80.2084 67.8807C80.2004 67.9324 80.2032 67.9852 80.2165 68.0358C80.2298 68.0863 80.2534 68.1336 80.2858 68.1746C80.3183 68.2156 80.3588 68.2495 80.405 68.2742C80.4511 68.2988 80.5018 68.3137 80.554 68.3178L84.3015 68.9565C84.9041 69.0576 84.6857 69.8581 83.9543 70.3082L79.2732 73.1495C78.9949 73.3146 78.7728 73.5597 78.6358 73.8529L76.9253 77.9187C76.6598 78.5634 75.6884 79.0457 75.2802 78.7342L72.7514 76.7834C72.6384 76.717 72.5101 76.6809 72.3791 76.6786C72.2481 76.6764 72.1187 76.708 72.0035 76.7705L67.2071 78.6487C66.4371 78.9481 66.0466 78.4495 66.5454 77.8035L69.6451 73.7468C69.7338 73.6561 69.7981 73.5444 69.8319 73.4222C69.8656 73.2999 69.8679 73.1711 69.8383 73.0477L68.5662 70.1326C68.3698 69.6793 69.0992 68.8793 69.8087 68.7998L74.2595 68.2511C74.58 68.1973 74.8774 68.05 75.1145 67.8277L79.1374 64.155C79.7755 63.5682 80.6176 63.5788 80.5626 64.1622Z" fill="#EC5E63"/>
<path opacity="0.5" d="M80.5626 64.1622L80.2084 67.8807C80.2004 67.9324 80.2032 67.9852 80.2165 68.0358C80.2298 68.0863 80.2534 68.1336 80.2858 68.1746C80.3183 68.2156 80.3588 68.2495 80.405 68.2742C80.4511 68.2988 80.5018 68.3137 80.554 68.3178L84.3015 68.9565C84.9041 69.0576 84.6857 69.8581 83.9543 70.3082L79.2732 73.1495C78.9949 73.3146 78.7728 73.5597 78.6358 73.8529L76.9253 77.9187C76.6598 78.5634 75.6884 79.0457 75.2802 78.7342L72.7514 76.7834C72.6384 76.717 72.5101 76.6809 72.3791 76.6786C72.2481 76.6764 72.1187 76.708 72.0035 76.7705L67.2071 78.6487C66.4371 78.9481 66.0466 78.4495 66.5454 77.8035L69.6451 73.7468C69.7338 73.6561 69.7981 73.5444 69.8319 73.4222C69.8656 73.2999 69.8679 73.1711 69.8383 73.0477L68.5662 70.1326C68.3698 69.6793 69.0992 68.8793 69.8087 68.7998L74.2595 68.2511C74.58 68.1973 74.8774 68.05 75.1145 67.8277L79.1374 64.155C79.7755 63.5682 80.6176 63.5788 80.5626 64.1622Z" fill="white"/>
<path d="M104.548 70.5447C105.11 70.2036 105.368 69.6705 105.225 69.4003L103.794 66.8326C103.758 66.7819 103.712 66.7394 103.659 66.7077C103.605 66.6761 103.546 66.6562 103.484 66.6492L101.012 66.2312L101.185 64.4277C101.199 64.3389 101.183 64.2483 101.141 64.169C100.952 63.8597 99.7358 61.6749 99.696 61.6048C99.5124 61.2869 98.8388 61.3645 98.3116 61.8426L94.2888 65.5153C94.0553 65.7389 93.7607 65.888 93.4423 65.9437L88.983 66.4874C88.2769 66.5806 87.544 67.3668 87.7439 67.8339L89.0075 70.7439C89.0411 70.8654 89.0422 70.9936 89.0107 71.1157C88.9792 71.2377 88.9161 71.3494 88.8279 71.4395L85.7197 75.4911C85.5311 75.8094 85.4554 76.0551 85.5507 76.2278L86.9907 78.8006C87.1067 78.9972 87.4209 79.0554 87.8213 78.909L92.6263 77.036C92.74 76.9743 92.8676 76.9426 92.9969 76.944C93.1263 76.9453 93.2532 76.9797 93.3656 77.0438L95.903 78.9997C96.3113 79.3112 97.2826 78.8288 97.5482 78.1842L99.2501 74.1133C99.3941 73.8234 99.6183 73.5811 99.896 73.4149L104.548 70.5447Z" fill="#EC5E63"/>
<path opacity="0.15" d="M105.205 69.3764C105.17 69.3268 105.126 69.2852 105.074 69.2544C105.022 69.2236 104.964 69.2044 104.904 69.1981L101.147 68.5543C101.096 68.5504 101.046 68.5358 101 68.5115C100.955 68.4871 100.915 68.4535 100.883 68.4129C100.852 68.3722 100.829 68.3253 100.816 68.2753C100.804 68.2252 100.802 68.1731 100.811 68.1223L100.992 66.2073L103.459 66.6339C103.52 66.6355 103.58 66.6528 103.632 66.684C103.685 66.7152 103.729 66.7593 103.76 66.8122L105.205 69.3764Z" fill="white"/>
<path opacity="0.15" d="M95.7216 68.0607C95.4831 68.2855 95.1841 68.4357 94.8614 68.4927L90.4107 69.0414C90.2039 69.0693 90.0058 69.1425 89.8305 69.2556L88.3906 66.6829C88.5653 66.5738 88.7593 66.4994 88.9621 66.4635L93.4128 65.9148C93.7369 65.8676 94.0386 65.7215 94.2765 65.4965L95.7216 68.0607Z" fill="white"/>
<path opacity="0.1" d="M101.127 64.1725C100.959 63.8288 100.277 63.9013 99.7444 64.388L95.7215 68.0607L94.2764 65.4965L98.2993 61.8238C98.8179 61.3406 99.4914 61.263 99.6751 61.5809C99.7353 61.6166 100.923 63.8307 101.12 64.1452L101.127 64.1725Z" fill="black"/>
<path opacity="0.25" d="M90.4471 73.2584L89.0177 70.7267L87.7541 67.8167C87.6081 67.4746 87.9482 66.9787 88.4216 66.6895L89.8616 69.2623C89.3933 69.5429 89.0567 70.0525 89.1992 70.3809L90.4471 73.2584Z" fill="black"/>
<path opacity="0.15" d="M87.139 78.04C86.9454 78.3669 86.8782 78.6177 86.9822 78.7955L85.5505 76.1695C85.4551 75.9968 85.4914 75.7394 85.7143 75.4414L88.8277 71.3812C88.9078 71.2922 88.9668 71.1865 89.0006 71.0718C89.0344 70.957 89.042 70.8362 89.0229 70.7181L90.4523 73.2498C90.4737 73.3678 90.4672 73.4893 90.4334 73.6044C90.3995 73.7196 90.3391 73.8252 90.2572 73.9129L87.139 78.04Z" fill="black"/>
<path d="M101.165 64.4039L100.811 68.1223C100.803 68.174 100.805 68.2268 100.819 68.2773C100.832 68.3279 100.856 68.3752 100.888 68.4162C100.92 68.4572 100.961 68.4911 101.007 68.5158C101.053 68.5404 101.104 68.5553 101.156 68.5594L104.904 69.1981C105.506 69.2993 105.288 70.0997 104.548 70.5447L99.8754 73.3911C99.5977 73.5572 99.3735 73.7996 99.2294 74.0894L97.5276 78.1603C97.262 78.805 96.2906 79.2873 95.8824 78.9758L93.3449 77.0199C93.2326 76.9558 93.1057 76.9214 92.9763 76.9201C92.847 76.9187 92.7194 76.9504 92.6057 77.0121L87.8007 78.8851C87.0393 79.1897 86.6488 78.6911 87.139 78.04L90.2473 73.9884C90.3379 73.898 90.4027 73.7851 90.4352 73.6614C90.4676 73.5376 90.4665 73.4074 90.4319 73.2842L89.1683 70.3742C88.9633 69.9158 89.7014 69.1209 90.4023 69.0363L94.8617 68.4927C95.1814 68.4366 95.4783 68.2896 95.7167 68.0693L99.7447 64.388C100.378 63.8098 101.22 63.8204 101.165 64.4039Z" fill="#EC5E63"/>
<path opacity="0.5" d="M101.165 64.4039L100.811 68.1223C100.803 68.174 100.805 68.2268 100.819 68.2773C100.832 68.3279 100.856 68.3752 100.888 68.4162C100.92 68.4572 100.961 68.4911 101.007 68.5158C101.053 68.5404 101.104 68.5553 101.156 68.5594L104.904 69.1981C105.506 69.2993 105.288 70.0997 104.548 70.5447L99.8754 73.3911C99.5977 73.5572 99.3735 73.7996 99.2294 74.0894L97.5276 78.1603C97.262 78.805 96.2906 79.2873 95.8824 78.9758L93.3449 77.0199C93.2326 76.9558 93.1057 76.9214 92.9763 76.9201C92.847 76.9187 92.7194 76.9504 92.6057 77.0121L87.8007 78.8851C87.0393 79.1897 86.6488 78.6911 87.139 78.04L90.2473 73.9884C90.3379 73.898 90.4027 73.7851 90.4352 73.6614C90.4676 73.5376 90.4665 73.4074 90.4319 73.2842L89.1683 70.3742C88.9633 69.9158 89.7014 69.1209 90.4023 69.0363L94.8617 68.4927C95.1814 68.4366 95.4783 68.2896 95.7167 68.0693L99.7447 64.388C100.378 63.8098 101.22 63.8204 101.165 64.4039Z" fill="white"/>
<path d="M125.15 70.7863C125.712 70.4452 125.97 69.9121 125.832 69.6333L124.387 67.0691C124.353 67.0195 124.308 66.9779 124.256 66.9471C124.204 66.9163 124.146 66.8971 124.086 66.8908L121.614 66.4728L121.787 64.6694C121.793 64.5809 121.777 64.4923 121.743 64.4106C121.546 64.0962 120.329 61.9114 120.298 61.8464C120.106 61.5234 119.446 61.5975 118.914 62.0842L114.891 65.7569C114.656 65.9828 114.357 66.1307 114.036 66.1803L109.547 66.6949C108.832 66.783 108.108 67.5744 108.308 68.0414L109.571 70.9514C109.605 71.0729 109.606 71.2011 109.575 71.3232C109.543 71.4453 109.48 71.5569 109.392 71.647L106.316 75.683C106.128 76.0014 106.052 76.247 106.147 76.4197L107.587 78.9925C107.703 79.1891 108.017 79.2473 108.418 79.1009L113.223 77.2279C113.336 77.1662 113.464 77.1345 113.593 77.1359C113.723 77.1372 113.85 77.1716 113.962 77.2357L116.499 79.1916C116.899 79.498 117.87 79.0157 118.145 78.3761L119.846 74.3052C119.987 74.0127 120.212 73.7693 120.492 73.6069L125.15 70.7863Z" fill="#EC5E63"/>
<path opacity="0.15" d="M125.807 69.618C125.774 69.5669 125.73 69.5241 125.678 69.4932C125.625 69.4622 125.567 69.4439 125.506 69.4397L121.75 68.7959C121.698 68.792 121.648 68.7774 121.603 68.7531C121.557 68.7287 121.517 68.6951 121.486 68.6544C121.454 68.6138 121.431 68.5669 121.419 68.5169C121.406 68.4668 121.404 68.4147 121.413 68.3639L121.594 66.4489L124.066 66.8668C124.127 66.8703 124.186 66.8883 124.238 66.9193C124.291 66.9503 124.335 66.9935 124.367 67.0452L125.807 69.618Z" fill="white"/>
<path opacity="0.15" d="M116.324 68.3023C116.082 68.5262 115.78 68.6746 115.455 68.7292L111.004 69.2779C110.8 69.3079 110.605 69.3828 110.433 69.4972L108.993 66.9244C109.166 66.812 109.36 66.7372 109.564 66.705L114.015 66.1564C114.337 66.1067 114.635 65.9588 114.87 65.733L116.324 68.3023Z" fill="white"/>
<path opacity="0.1" d="M121.735 64.4055C121.561 64.0704 120.879 64.1429 120.347 64.6296L116.324 68.3023L114.87 65.733L118.893 62.0603C119.42 61.5822 120.094 61.5046 120.277 61.8225C120.338 61.8582 121.525 64.0723 121.722 64.3867L121.735 64.4055Z" fill="black"/>
<path opacity="0.25" d="M111.034 73.5258L109.596 70.989L108.332 68.079C108.186 67.7369 108.526 67.241 109 66.9519L110.44 69.5247C109.971 69.8052 109.626 70.3097 109.777 70.6432L111.034 73.5258Z" fill="black"/>
<path opacity="0.15" d="M107.741 78.2816C107.547 78.6086 107.472 78.8543 107.589 79.0285L106.106 76.4302C106.011 76.2576 106.047 76.0001 106.275 75.6935L109.383 71.6419C109.465 71.5529 109.524 71.4461 109.556 71.33C109.589 71.2139 109.593 71.0919 109.57 70.9737L111.008 73.5105C111.03 73.6286 111.024 73.7503 110.99 73.8655C110.956 73.9808 110.895 74.0864 110.813 74.1736L107.741 78.2816Z" fill="black"/>
<path d="M121.767 64.6455L121.413 68.3639C121.405 68.4156 121.407 68.4684 121.421 68.5189C121.434 68.5695 121.458 68.6168 121.49 68.6578C121.522 68.6989 121.563 68.7328 121.609 68.7574C121.655 68.782 121.706 68.7968 121.758 68.801L125.506 69.4397C126.1 69.5358 125.89 70.3413 125.15 70.7863L120.488 73.6155C120.207 73.7779 119.982 74.0212 119.842 74.3138L118.14 78.3847C117.866 79.0243 116.894 79.5066 116.495 79.2002L113.957 77.2443C113.845 77.1802 113.718 77.1458 113.588 77.1445C113.459 77.1431 113.332 77.1748 113.218 77.2365L108.413 79.1096C107.651 79.4141 107.266 78.9069 107.751 78.2644L110.859 74.2128C110.947 74.1208 111.011 74.0078 111.043 73.8846C111.075 73.7614 111.076 73.632 111.044 73.5086L109.78 70.5986C109.575 70.1402 110.314 69.3453 111.014 69.2607L115.474 68.7171C115.79 68.6559 116.084 68.5075 116.32 68.2886L120.348 64.6073C120.98 64.0515 121.827 64.0534 121.767 64.6455Z" fill="#EC5E63"/>
<path opacity="0.5" d="M121.767 64.6455L121.413 68.3639C121.405 68.4156 121.407 68.4684 121.421 68.5189C121.434 68.5695 121.458 68.6168 121.49 68.6578C121.522 68.6989 121.563 68.7328 121.609 68.7574C121.655 68.782 121.706 68.7968 121.758 68.801L125.506 69.4397C126.1 69.5358 125.89 70.3413 125.15 70.7863L120.488 73.6155C120.207 73.7779 119.982 74.0212 119.842 74.3138L118.14 78.3847C117.866 79.0243 116.894 79.5066 116.495 79.2002L113.957 77.2443C113.845 77.1802 113.718 77.1458 113.588 77.1445C113.459 77.1431 113.332 77.1748 113.218 77.2365L108.413 79.1096C107.651 79.4141 107.266 78.9069 107.751 78.2644L110.859 74.2128C110.947 74.1208 111.011 74.0078 111.043 73.8846C111.075 73.7614 111.076 73.632 111.044 73.5086L109.78 70.5986C109.575 70.1402 110.314 69.3453 111.014 69.2607L115.474 68.7171C115.79 68.6559 116.084 68.5075 116.32 68.2886L120.348 64.6073C120.98 64.0515 121.827 64.0534 121.767 64.6455Z" fill="white"/>
</svg>
