<svg width="119" height="173" viewBox="0 0 119 173" fill="none" xmlns="http://www.w3.org/2000/svg">
<path d="M118.551 157.044L48.3301 138.605L24.1566 153.471L118.551 157.044Z" fill="#EC5E63"/>
<g opacity="0.15">
<path d="M118.551 157.044L48.3301 138.605L24.1566 153.471L118.551 157.044Z" fill="white"/>
</g>
<path d="M118.551 157.044L55.1988 132.033L63.1808 116.871L118.551 157.044Z" fill="#EC5E63"/>
<g opacity="0.15">
<path d="M118.551 157.044L55.1988 132.033L63.1808 116.871L118.551 157.044Z" fill="white"/>
</g>
<path d="M55.1992 132.033L57.8569 141.105L118.551 157.044L55.1992 132.033Z" fill="#EC5E63"/>
<g opacity="0.2">
<path d="M55.1992 132.033L57.8569 141.105L118.551 157.044L55.1992 132.033Z" fill="black"/>
</g>
<path d="M45.5992 131.848C45.7564 131.818 45.8976 131.736 45.9958 131.618C46.1084 131.477 46.1614 131.304 46.1445 131.133C46.1276 130.962 46.0421 130.804 45.9042 130.69L44.3957 129.386C44.3342 129.331 44.2599 129.288 44.1779 129.262C44.0959 129.236 44.0081 129.226 43.9204 129.233C43.8327 129.24 43.7472 129.265 43.6695 129.304C43.5918 129.344 43.5238 129.398 43.47 129.463C43.3578 129.605 43.3042 129.777 43.319 129.947C43.3339 130.118 43.4162 130.277 43.5507 130.393C44.0493 130.825 44.5555 131.236 45.065 131.666C45.1312 131.732 45.2139 131.783 45.3066 131.815C45.3993 131.847 45.4994 131.858 45.5992 131.848Z" fill="#455A64"/>
<path d="M38.7261 126.105C37.7761 125.212 36.8498 124.305 35.9471 123.384C35.8246 123.257 35.7579 123.093 35.7594 122.921C35.7608 122.749 35.8303 122.582 35.955 122.449C36.0142 122.389 36.0867 122.341 36.1673 122.308C36.2479 122.276 36.3348 122.259 36.4219 122.259C36.5091 122.26 36.5945 122.278 36.6723 122.311C36.7501 122.345 36.8184 122.394 36.8725 122.455C37.7771 123.365 38.6909 124.264 39.5704 125.159C39.7005 125.28 39.7751 125.442 39.7797 125.613C39.7843 125.785 39.7185 125.954 39.5951 126.088C39.504 126.189 39.3767 126.258 39.2369 126.281C39.1416 126.288 39.0464 126.276 38.9581 126.246C38.8698 126.215 38.7906 126.167 38.7261 126.105ZM31.5332 118.62C30.6837 117.639 29.8416 116.637 29.0321 115.629C28.9214 115.493 28.8702 115.324 28.8883 115.152C28.9064 114.981 28.9924 114.82 29.1302 114.699C29.1978 114.644 29.2771 114.603 29.3626 114.579C29.4481 114.554 29.5378 114.547 29.6255 114.557C29.7133 114.567 29.797 114.594 29.8709 114.637C29.9448 114.68 30.0072 114.737 30.0537 114.805C30.849 115.795 31.6768 116.779 32.5138 117.752C32.6314 117.883 32.6909 118.05 32.6812 118.222C32.6714 118.394 32.593 118.558 32.4609 118.684C32.3691 118.758 32.258 118.809 32.1394 118.831C32.0252 118.849 31.9088 118.838 31.8022 118.801C31.6957 118.764 31.6028 118.702 31.5332 118.62ZM25.1457 110.419C24.4021 109.339 23.6568 108.249 23.0001 107.154C22.9069 107.01 22.8761 106.838 22.9134 106.671C22.9508 106.504 23.0537 106.353 23.2027 106.247C23.2783 106.202 23.3628 106.172 23.4509 106.158C23.539 106.144 23.6286 106.147 23.7141 106.167C23.7996 106.187 23.879 106.223 23.9473 106.273C24.0156 106.323 24.0712 106.385 24.1105 106.457C24.7747 107.53 25.484 108.606 26.2242 109.667C26.3237 109.809 26.3616 109.981 26.3309 110.15C26.3002 110.32 26.203 110.476 26.0576 110.588C25.9798 110.64 25.8904 110.677 25.7962 110.693C25.6682 110.712 25.5383 110.695 25.4227 110.647C25.3071 110.598 25.2108 110.519 25.1457 110.419ZM19.7565 101.52C19.1549 100.355 18.5716 99.1661 18.0385 98.0094C17.9591 97.8575 17.9481 97.6816 18.0076 97.5183C18.0672 97.3551 18.1927 97.217 18.3581 97.133C18.4396 97.0981 18.5276 97.0787 18.6165 97.0759C18.7055 97.0732 18.7935 97.0871 18.8751 97.117C18.9568 97.1468 19.0303 97.1918 19.0911 97.2492C19.1518 97.3067 19.1986 97.3753 19.2285 97.4509C19.749 98.5996 20.3164 99.7605 20.9364 100.902C21.0188 101.051 21.0365 101.225 20.9861 101.389C20.9357 101.553 20.8207 101.697 20.6636 101.791L20.4681 101.824C20.3269 101.851 20.1817 101.836 20.0537 101.781C19.9256 101.726 19.8215 101.635 19.7565 101.52ZM15.533 91.9855C15.1018 90.7708 14.6872 89.5228 14.3069 88.2791C14.2472 88.1213 14.2588 87.9464 14.3391 87.7921C14.4194 87.6379 14.562 87.5168 14.7361 87.455C14.9123 87.4136 15.097 87.4361 15.2509 87.5178C15.4048 87.5995 15.5156 87.734 15.5598 87.8924C15.9259 89.1183 16.3371 90.3465 16.765 91.5415C16.829 91.6957 16.825 91.8683 16.7539 92.0239C16.6828 92.1794 16.5499 92.3061 16.3826 92.3779L16.2631 92.3983C16.1053 92.4178 15.9467 92.3875 15.8138 92.3123C15.6809 92.2372 15.5818 92.1218 15.533 91.9855ZM12.701 81.9594C12.5325 80.9737 12.2988 79.9991 12.1184 78.9444L11.9769 78.1164C11.9588 78.0369 11.9581 77.9544 11.9751 77.8736C11.992 77.7928 12.0261 77.7154 12.0754 77.6457C12.1248 77.576 12.1884 77.5154 12.2626 77.4675C12.3369 77.4195 12.4203 77.3851 12.5081 77.3662C12.6899 77.3481 12.8699 77.396 13.009 77.4995C13.1481 77.6029 13.235 77.7536 13.2509 77.9189L13.3891 78.7272C13.5577 79.7128 13.7262 80.6985 13.8947 81.6842C13.938 81.8459 13.9097 82.0188 13.8157 82.1657C13.7217 82.3126 13.5696 82.4219 13.392 82.4702C13.2255 82.4789 13.0634 82.4317 12.9361 82.3375C12.8088 82.2434 12.7252 82.1089 12.701 81.9594ZM11.9259 72.2613C11.7432 72.2627 11.5691 72.2 11.4394 72.0863C11.3098 71.9726 11.2345 71.8165 11.2289 71.65C11.131 70.358 11.0623 69.0407 11.0186 67.7395C11.0114 67.6578 11.0227 67.5751 11.0518 67.4965C11.0808 67.4179 11.127 67.345 11.1876 67.2824C11.2481 67.2198 11.3216 67.1687 11.4036 67.1324C11.4856 67.096 11.5744 67.0752 11.6645 67.0711C11.8476 67.0741 12.0198 67.1424 12.1446 67.2613C12.2693 67.3802 12.3366 67.5403 12.3322 67.7076C12.3725 68.9892 12.4378 70.2867 12.5307 71.5491C12.5492 71.7034 12.5043 71.8603 12.4047 71.9897C12.3051 72.119 12.1578 72.2118 11.9911 72.2501L11.9259 72.2613ZM11.724 61.9275C11.5415 61.907 11.3767 61.8235 11.2631 61.694C11.1496 61.5645 11.0959 61.3987 11.113 61.2305C11.1813 59.9304 11.2931 58.6229 11.4408 57.3295C11.4437 57.2485 11.465 57.1684 11.5035 57.0944C11.542 57.0203 11.5967 56.9539 11.6642 56.8994C11.7317 56.8449 11.8104 56.8035 11.8954 56.7778C11.9804 56.7521 12.0698 56.7428 12.1578 56.7503C12.34 56.781 12.5008 56.8731 12.6088 57.0085C12.7167 57.144 12.764 57.313 12.7413 57.4825C12.5993 58.7444 12.4859 60.0421 12.4125 61.3127C12.4131 61.4526 12.3602 61.5899 12.2629 61.701C12.1656 61.8121 12.03 61.8899 11.8794 61.9212L11.724 61.9275ZM12.9895 51.6776C12.8118 51.633 12.6614 51.5282 12.5684 51.3842C12.4753 51.2401 12.4466 51.0676 12.4879 50.901C12.7526 49.6384 13.07 48.3565 13.4142 47.1006C13.4322 47.0215 13.4679 46.9461 13.519 46.8792C13.5701 46.8124 13.6354 46.7555 13.711 46.712C13.7865 46.6686 13.8706 46.6397 13.9579 46.627C14.0452 46.6143 14.1338 46.6182 14.2182 46.6384C14.3912 46.6978 14.5331 46.8125 14.6182 46.9618C14.7032 47.1111 14.7256 47.2851 14.6815 47.452C14.334 48.6883 13.9898 49.9442 13.7651 51.1798C13.7441 51.3022 13.6819 51.4168 13.5872 51.5076C13.4925 51.5984 13.37 51.6607 13.2369 51.686C13.1543 51.7029 13.0691 51.7 12.9895 51.6776ZM15.8875 41.7573C15.7178 41.6856 15.585 41.5585 15.5147 41.4002C15.4443 41.2419 15.4412 41.0635 15.5061 40.8993C15.9815 39.6919 16.4895 38.4789 17.0151 37.3035C17.0449 37.2265 17.0923 37.1557 17.1542 37.096C17.2161 37.0363 17.291 36.9892 17.3737 36.9577C17.4564 36.9262 17.545 36.9112 17.6335 36.9136C17.7219 36.9161 17.8081 36.936 17.8862 36.972C18.0476 37.0553 18.1693 37.1893 18.2296 37.3501C18.2898 37.5108 18.2847 37.6877 18.215 37.8491C17.686 39.0048 17.1855 40.1962 16.7285 41.3802C16.6928 41.4825 16.6273 41.5749 16.5391 41.6472C16.451 41.7196 16.3435 41.769 16.2285 41.7903C16.1127 41.8098 15.9942 41.7983 15.8875 41.7573ZM20.2236 32.4027C20.0719 32.3081 19.9649 32.1653 19.9224 32.0009C19.8799 31.8365 19.9048 31.6616 19.9925 31.5089C20.6385 30.3839 21.328 29.2515 22.0275 28.1783C22.0733 28.1085 22.1349 28.0482 22.208 28.0015C22.2811 27.9549 22.364 27.923 22.4508 27.9082C22.5377 27.8933 22.6264 27.8958 22.7109 27.9155C22.7953 27.9352 22.8735 27.9717 22.9398 28.0223C23.0851 28.1274 23.1813 28.2788 23.2102 28.4478C23.239 28.6168 23.1986 28.7915 23.0966 28.939C22.4062 30.0005 21.7317 31.0898 21.0949 32.203C21.0506 32.2852 20.9858 32.3573 20.906 32.4132C20.8262 32.4692 20.7336 32.5075 20.6357 32.525C20.5526 32.5376 20.468 32.534 20.3876 32.5146C20.3072 32.4951 20.2328 32.4601 20.1693 32.412L20.2236 32.4027ZM25.9463 23.8357C25.801 23.7306 25.7048 23.5792 25.6759 23.4102C25.647 23.2412 25.6875 23.0665 25.7895 22.919C26.5986 21.8981 27.4437 20.8912 28.2972 19.9337C28.3534 19.8699 28.4235 19.8174 28.503 19.7798C28.5824 19.7422 28.6692 19.7204 28.7575 19.7159C28.8458 19.7114 28.9336 19.7243 29.0147 19.7537C29.0959 19.783 29.1687 19.8282 29.228 19.8861C29.357 20.0077 29.4327 20.1686 29.4415 20.3401C29.4503 20.5115 29.3917 20.6822 29.2761 20.8214C28.4301 21.7574 27.6034 22.7408 26.8018 23.7401C26.7082 23.8634 26.5664 23.9497 26.4069 23.9801C26.3142 23.9945 26.2199 23.9898 26.1308 23.9664C26.0417 23.943 25.9601 23.9015 25.892 23.845L25.9463 23.8357ZM32.8728 16.2296C32.7586 16.0984 32.7002 15.933 32.708 15.7628C32.7157 15.5926 32.789 15.4284 32.9149 15.2991C33.8796 14.4037 34.8528 13.5576 35.836 12.7707C35.9035 12.7179 35.9821 12.6786 36.0666 12.6552C36.151 12.6319 36.2393 12.6251 36.3257 12.6353C36.4121 12.6455 36.4945 12.6724 36.5674 12.7144C36.6403 12.7563 36.7021 12.8122 36.7487 12.8784C36.8585 13.0125 36.909 13.1805 36.8906 13.3501C36.8722 13.5198 36.7861 13.6794 36.6489 13.7984C35.6639 14.5755 34.6891 15.4118 33.7278 16.3269C33.6372 16.4091 33.5216 16.4644 33.3971 16.4848C33.2842 16.4924 33.1719 16.4738 33.0707 16.4308C32.9696 16.3877 32.8828 16.3217 32.8185 16.2388L32.8728 16.2296Z" fill="#455A64"/>
<path d="M41.7019 10.3373L41.8974 10.3039C42.4373 10.0085 43.0046 9.75868 43.5918 9.55764C43.764 9.49156 43.9035 9.36797 43.9812 9.21282C44.0589 9.05767 44.0686 8.88303 44.0084 8.72553C43.988 8.64672 43.9503 8.57296 43.8976 8.50858C43.845 8.4442 43.7784 8.39051 43.7018 8.35067C43.6252 8.31083 43.5401 8.28562 43.4516 8.27657C43.3631 8.26752 43.2729 8.27479 43.1864 8.29795C42.5331 8.52718 41.9001 8.80507 41.294 9.12876C41.1327 9.2201 41.0135 9.36303 40.9608 9.52846C40.9081 9.6939 40.9258 9.86939 41.0104 10.0193C41.072 10.133 41.1721 10.2249 41.2962 10.282C41.4203 10.3391 41.5623 10.3584 41.7019 10.3373Z" fill="#455A64"/>
</svg>
