<svg width="84" height="160" viewBox="0 0 84 160" fill="none" xmlns="http://www.w3.org/2000/svg">
<path d="M83.9 159.323L23.9 129.313L0 139.893L83.9 159.323Z" fill="#EC5E63"/>
<g opacity="0.15">
<path d="M83.9 159.323L23.9 129.313L0 139.893L83.9 159.323Z" fill="white"/>
</g>
<path d="M83.9 159.323L31.05 123.993L40.51 110.393L83.9 159.323Z" fill="#EC5E63"/>
<g opacity="0.15">
<path d="M83.9 159.323L31.05 123.993L40.51 110.393L83.9 159.323Z" fill="white"/>
</g>
<path d="M31.05 123.993L32.04 133.383L83.9 159.323L31.05 123.993Z" fill="#EC5E63"/>
<g opacity="0.2">
<path d="M31.05 123.993L32.04 133.383L83.9 159.323L31.05 123.993Z" fill="black"/>
</g>
<path d="M22.49 122.193C22.6353 122.19 22.7741 122.133 22.88 122.033C23.0024 121.912 23.0762 121.751 23.0873 121.579C23.0983 121.408 23.0459 121.238 22.94 121.103L21.79 119.563C21.7434 119.498 21.6834 119.444 21.6141 119.404C21.5448 119.364 21.4678 119.34 21.3882 119.332C21.3086 119.325 21.2283 119.334 21.1528 119.36C21.0772 119.386 21.008 119.428 20.95 119.483C20.828 119.603 20.7538 119.764 20.7409 119.935C20.728 120.106 20.7774 120.276 20.88 120.413C21.26 120.923 21.65 121.413 22.04 121.923C22.0891 122 22.1553 122.064 22.2333 122.111C22.3114 122.158 22.3993 122.186 22.49 122.193Z" fill="#455A64"/>
<path d="M17.22 115.373C16.5066 114.333 15.8166 113.283 15.15 112.223C15.0598 112.077 15.0253 111.904 15.0528 111.735C15.0804 111.566 15.1682 111.413 15.3 111.303C15.3622 111.254 15.4343 111.219 15.5115 111.2C15.5886 111.181 15.6689 111.179 15.7468 111.194C15.8247 111.21 15.8984 111.242 15.9628 111.288C16.0272 111.334 16.0808 111.394 16.12 111.463C16.79 112.513 17.47 113.553 18.12 114.583C18.2179 114.724 18.2599 114.896 18.2377 115.066C18.2155 115.236 18.1307 115.392 18 115.503C17.9029 115.587 17.7785 115.634 17.65 115.633C17.5636 115.624 17.4802 115.596 17.4059 115.551C17.3316 115.506 17.2681 115.445 17.22 115.373ZM11.93 106.783C11.32 105.673 10.72 104.543 10.15 103.413C10.0716 103.261 10.0518 103.085 10.0942 102.919C10.1366 102.754 10.2382 102.609 10.38 102.513C10.4488 102.471 10.526 102.444 10.6062 102.434C10.6864 102.424 10.7678 102.432 10.8448 102.457C10.9218 102.481 10.9925 102.523 11.052 102.577C11.1116 102.632 11.1587 102.699 11.19 102.773C11.75 103.883 12.34 104.993 12.94 106.093C13.0252 106.242 13.0529 106.416 13.0178 106.584C12.9828 106.752 12.8875 106.901 12.75 107.003C12.6566 107.06 12.5495 107.091 12.44 107.093C12.3351 107.091 12.2325 107.062 12.1429 107.007C12.0532 106.953 11.9797 106.875 11.93 106.783ZM7.46997 97.6231C6.96997 96.4331 6.46997 95.2331 6.04997 94.0431C5.98861 93.8855 5.9873 93.7108 6.0463 93.5522C6.1053 93.3937 6.22048 93.2623 6.36997 93.1831C6.44444 93.1515 6.52471 93.1358 6.6056 93.1371C6.6865 93.1383 6.76624 93.1565 6.8397 93.1904C6.91316 93.2243 6.97872 93.2732 7.03215 93.3339C7.08559 93.3947 7.12572 93.4659 7.14997 93.5431C7.57997 94.7131 8.04997 95.8931 8.54997 97.0631C8.61719 97.2199 8.62481 97.3959 8.57141 97.558C8.51801 97.72 8.40725 97.857 8.25997 97.9431C8.1823 97.9819 8.09679 98.0024 8.00997 98.0031C7.89266 97.9995 7.77898 97.9616 7.683 97.8941C7.58702 97.8265 7.51295 97.7323 7.46997 97.6231ZM4.00997 87.9431C3.64997 86.6931 3.30997 85.4231 3.00997 84.1931C2.96221 84.03 2.97922 83.8547 3.05746 83.7039C3.1357 83.553 3.26914 83.4381 3.42997 83.3831C3.50823 83.3625 3.58989 83.3582 3.66988 83.3704C3.74987 83.3827 3.82648 83.4113 3.89495 83.4544C3.96342 83.4976 4.02228 83.5544 4.06788 83.6212C4.11347 83.6881 4.14482 83.7636 4.15997 83.8431C4.44997 85.0631 4.77997 86.3031 5.15997 87.5331C5.21087 87.6939 5.20017 87.868 5.12994 88.0214C5.05972 88.1748 4.93498 88.2965 4.77997 88.3631H4.59997C4.46966 88.3653 4.34207 88.3257 4.2359 88.2502C4.12972 88.1746 4.05055 88.067 4.00997 87.9431ZM1.68997 77.8331C1.48997 76.5631 1.30997 75.2631 1.15997 73.9731C1.1307 73.8075 1.1678 73.637 1.26323 73.4985C1.35867 73.3601 1.50478 73.2647 1.66997 73.2331C1.83393 73.222 1.99576 73.2753 2.12093 73.3818C2.2461 73.4883 2.3247 73.6395 2.33997 73.8031C2.47997 75.0731 2.65997 76.3531 2.85997 77.6031C2.89364 77.7659 2.8637 77.9353 2.77628 78.0767C2.68887 78.218 2.55063 78.3205 2.38997 78.3631H2.27997C2.13579 78.3557 1.99851 78.2991 1.89111 78.2026C1.78371 78.1061 1.7127 77.9757 1.68997 77.8331ZM0.689973 67.4731C0.689973 66.4731 0.629971 65.4731 0.629971 64.4031V63.5631C0.625935 63.4817 0.638004 63.4002 0.665486 63.3235C0.692969 63.2467 0.735327 63.1761 0.790132 63.1157C0.844936 63.0553 0.911113 63.0064 0.984872 62.9716C1.05863 62.9368 1.13852 62.917 1.21997 62.9131C1.38539 62.9259 1.53909 63.0035 1.64768 63.1289C1.75628 63.2544 1.811 63.4175 1.79997 63.5831V64.4031C1.79997 65.4031 1.79997 66.4031 1.79997 67.4031C1.81398 67.5698 1.76217 67.7354 1.65564 67.8643C1.5491 67.9933 1.39631 68.0754 1.22997 68.0931C1.07977 68.0736 0.941905 67.9997 0.84242 67.8855C0.742934 67.7713 0.688707 67.6246 0.689973 67.4731ZM1.47997 57.7831C1.31629 57.7537 1.17012 57.6626 1.07153 57.5287C0.972942 57.3948 0.929437 57.2281 0.949971 57.0631C1.05997 55.7731 1.19997 54.4631 1.35997 53.1731C1.36604 53.0914 1.38878 53.0118 1.4268 52.9392C1.46481 52.8666 1.51729 52.8026 1.58101 52.751C1.64472 52.6995 1.71831 52.6616 1.79725 52.6396C1.87618 52.6176 1.95879 52.612 2.03997 52.6231C2.20332 52.657 2.34699 52.7533 2.44038 52.8915C2.53377 53.0297 2.56951 53.1989 2.53997 53.3631C2.37997 54.6331 2.23997 55.9231 2.12997 57.1831C2.12288 57.3383 2.05873 57.4853 1.94983 57.5961C1.84094 57.7068 1.69498 57.7734 1.53997 57.7831H1.47997ZM2.87997 47.5631C2.71985 47.5122 2.58518 47.4021 2.50342 47.2553C2.42166 47.1085 2.39897 46.936 2.43997 46.7731C2.69997 45.5031 2.99997 44.2331 3.32997 42.9831C3.34493 42.9038 3.37628 42.8285 3.42201 42.762C3.46775 42.6955 3.52686 42.6392 3.59557 42.5969C3.66429 42.5545 3.74108 42.527 3.82105 42.516C3.90101 42.505 3.98239 42.5108 4.05997 42.5331C4.21827 42.594 4.34808 42.7119 4.42394 42.8636C4.49979 43.0153 4.51621 43.1899 4.46997 43.3531C4.14997 44.5731 3.84997 45.8331 3.58997 47.0731C3.56914 47.2112 3.50081 47.3376 3.39677 47.4307C3.29273 47.5238 3.15948 47.5777 3.01997 47.5831L2.87997 47.5631ZM5.57997 37.6731C5.42785 37.5992 5.30928 37.4705 5.24808 37.3129C5.18687 37.1552 5.18755 36.9803 5.24997 36.8231C5.67997 35.6231 6.15997 34.4131 6.65997 33.2331C6.68822 33.1582 6.73168 33.0899 6.7876 33.0326C6.84353 32.9753 6.91071 32.9302 6.98492 32.9002C7.05913 32.8701 7.13876 32.8557 7.2188 32.858C7.29884 32.8602 7.37755 32.879 7.44997 32.9131C7.59567 33.0008 7.70509 33.1378 7.75831 33.2993C7.81152 33.4608 7.80502 33.636 7.73997 33.7931C7.23997 34.9531 6.73997 36.1331 6.34997 37.3131C6.31247 37.4303 6.2393 37.5327 6.14068 37.6063C6.04207 37.6798 5.92295 37.7206 5.79997 37.7231C5.72354 37.7259 5.64771 37.7086 5.57997 37.6731ZM9.68997 28.3831C9.5491 28.2839 9.44978 28.1362 9.41103 27.9683C9.37228 27.8004 9.39683 27.624 9.47997 27.4731C10.09 26.3631 10.73 25.2531 11.38 24.1831C11.4184 24.1122 11.4717 24.0504 11.5362 24.002C11.6007 23.9536 11.6748 23.9197 11.7537 23.9026C11.8325 23.8855 11.914 23.8856 11.9928 23.903C12.0716 23.9203 12.1456 23.9545 12.21 24.0031C12.3416 24.1124 12.43 24.2651 12.4593 24.4337C12.4887 24.6022 12.457 24.7757 12.37 24.9231C11.72 25.9731 11.09 27.0631 10.5 28.1531C10.4524 28.248 10.3797 28.328 10.2897 28.3845C10.1998 28.4409 10.0961 28.4716 9.98997 28.4731C9.88336 28.4728 9.77914 28.4416 9.68997 28.3831ZM15 19.8931C14.8787 19.7743 14.8048 19.6155 14.7919 19.4463C14.7791 19.277 14.8281 19.1089 14.93 18.9731C15.68 17.9731 16.47 16.9731 17.26 16.0331C17.3116 15.972 17.3759 15.923 17.4485 15.8893C17.521 15.8557 17.6 15.8382 17.68 15.8382C17.7599 15.8382 17.8389 15.8557 17.9115 15.8893C17.984 15.923 18.0483 15.972 18.1 16.0331C18.2138 16.1612 18.2767 16.3267 18.2767 16.4981C18.2767 16.6695 18.2138 16.835 18.1 16.9631C17.32 17.8931 16.55 18.8531 15.81 19.8431C15.7578 19.9167 15.6888 19.9768 15.6089 20.0185C15.5289 20.0602 15.4402 20.0823 15.35 20.0831C15.2737 20.0815 15.1986 20.0638 15.1296 20.031C15.0607 19.9983 14.9994 19.9512 14.95 19.8931H15ZM21.43 12.4131C21.3161 12.285 21.2532 12.1195 21.2532 11.9481C21.2532 11.7767 21.3161 11.6113 21.43 11.4831C22.31 10.6131 23.22 9.76311 24.13 8.96311C24.19 8.90965 24.2608 8.86975 24.3376 8.8461C24.4144 8.82245 24.4954 8.81562 24.5751 8.82605C24.6548 8.83649 24.7313 8.86396 24.7995 8.90659C24.8676 8.94922 24.9257 9.00602 24.97 9.07312C25.0668 9.21465 25.1099 9.38606 25.0916 9.55655C25.0732 9.72704 24.9947 9.8854 24.87 10.0031C23.97 10.7831 23.08 11.6131 22.21 12.4631C22.1074 12.5689 21.9673 12.63 21.82 12.6331C21.7349 12.6316 21.6512 12.6111 21.575 12.573C21.4989 12.535 21.4322 12.4803 21.38 12.4131H21.43ZM28.79 6.0831C28.7079 5.93453 28.681 5.76175 28.7139 5.59525C28.7468 5.42875 28.8375 5.27923 28.97 5.1731C29.97 4.4531 30.97 3.7831 31.97 3.1731C32.0384 3.13248 32.1148 3.10693 32.1939 3.09815C32.273 3.08936 32.3531 3.09756 32.4288 3.12216C32.5045 3.14677 32.5741 3.18723 32.6329 3.24085C32.6917 3.29447 32.7385 3.36 32.77 3.43311C32.8477 3.5838 32.8672 3.75784 32.8248 3.922C32.7823 4.08615 32.681 4.22894 32.54 4.32312C31.54 4.92312 30.54 5.58312 29.54 6.32312C29.4463 6.38894 29.3344 6.42388 29.22 6.4231C29.1178 6.41148 29.0202 6.37423 28.9363 6.31479C28.8524 6.25535 28.7848 6.17564 28.74 6.0831H28.79Z" fill="#455A64"/>
<path d="M37.59 1.76315H37.77C38.2982 1.56299 38.8439 1.41234 39.4 1.31314C39.5641 1.27701 39.7079 1.17871 39.8011 1.03888C39.8943 0.899041 39.9298 0.72854 39.9 0.563138C39.8937 0.48201 39.8713 0.402958 39.834 0.330625C39.7968 0.258292 39.7454 0.194148 39.683 0.141965C39.6206 0.0897825 39.5483 0.0506019 39.4705 0.0267613C39.3927 0.00292066 39.3109 -0.00510328 39.23 0.00314067C38.6105 0.118988 38.0017 0.286233 37.41 0.503141C37.2516 0.56598 37.1232 0.686786 37.0507 0.84097C36.9783 0.995155 36.9673 1.17112 37.02 1.33313C37.0578 1.4556 37.1332 1.56307 37.2355 1.64026C37.3378 1.71744 37.4618 1.76044 37.59 1.76315Z" fill="#455A64"/>
</svg>
