<svg width="109" height="156" viewBox="0 0 109 156" fill="none" xmlns="http://www.w3.org/2000/svg">
<path d="M77.5788 63.4751L90.9032 0.318359L61.99 50.8563L77.5788 63.4751Z" fill="#EC5E63"/>
<path opacity="0.15" d="M77.5788 63.4751L90.9032 0.318359L61.99 50.8563L77.5788 63.4751Z" fill="white"/>
<path d="M90.9033 0.318335L86.5318 67.2855L102.121 79.9043L90.9033 0.318335Z" fill="#EC5E63"/>
<path opacity="0.15" d="M90.9033 0.318335L86.5318 67.2855L102.121 79.9043L90.9033 0.318335Z" fill="white"/>
<path d="M86.5317 67.2855L69.6149 69.0528L77.5788 63.4751L90.9032 0.318359L86.5317 67.2855Z" fill="#EC5E63"/>
<path opacity="0.2" d="M86.5317 67.2855L69.6149 69.0528L77.5788 63.4751L90.9032 0.318359L86.5317 67.2855Z" fill="black"/>
<path d="M69.6151 69.0527L72.3789 59.2658L77.579 63.475L69.6151 69.0527Z" fill="#EC5E63"/>
<path opacity="0.2" d="M77.579 63.475L72.3789 59.2658L71.9409 60.8277L77.579 63.475Z" fill="black"/>
<path d="M82.2806 80.2479C82.2307 80.1951 82.1701 80.1528 82.1024 80.1233C82.0348 80.0939 81.9616 80.0779 81.8872 80.0766C81.7085 80.0737 81.5342 80.1326 81.3958 80.2424C81.2574 80.3522 81.164 80.5058 81.1325 80.6754L80.8084 82.5373C80.7912 82.6158 80.792 82.6968 80.8107 82.7747C80.8294 82.8526 80.8656 82.9254 80.9167 82.9882C80.9678 83.051 81.0326 83.1022 81.1066 83.1382C81.1806 83.1742 81.262 83.1942 81.3451 83.1967C81.5217 83.2029 81.6951 83.1479 81.834 83.0416C81.9728 82.9354 82.0679 82.785 82.1018 82.6179L82.4239 80.736C82.441 80.6492 82.4369 80.56 82.412 80.4753C82.3872 80.3906 82.3422 80.3128 82.2806 80.2479Z" fill="#455A64"/>
<path d="M80.8101 88.7684C80.5158 89.9941 80.2008 91.2219 79.8735 92.4309C79.8268 92.5968 79.7203 92.7417 79.5731 92.8394C79.4258 92.9372 79.2476 92.9815 79.0705 92.9642C78.9883 92.9516 78.9101 92.9222 78.8411 92.8779C78.772 92.8336 78.7138 92.7754 78.6703 92.7074C78.6268 92.6394 78.599 92.5631 78.5888 92.4836C78.5787 92.4041 78.5864 92.3233 78.6114 92.2467C78.9398 91.0477 79.2454 89.8308 79.5407 88.6151C79.5814 88.4495 79.683 88.3033 79.8268 88.2038C79.9705 88.1042 80.1465 88.0581 80.3221 88.0739C80.4571 88.0837 80.5828 88.1429 80.6731 88.2395C80.7402 88.3092 80.7879 88.3942 80.8118 88.4866C80.8358 88.579 80.8352 88.6759 80.8101 88.7684ZM78.0103 98.5087C77.5898 99.727 77.2088 100.921 76.6922 102.119C76.633 102.28 76.5142 102.415 76.3585 102.498C76.2028 102.58 76.0214 102.605 75.8491 102.566C75.769 102.544 75.6946 102.506 75.631 102.455C75.5674 102.403 75.516 102.339 75.4801 102.267C75.4442 102.194 75.4246 102.115 75.4227 102.035C75.4207 101.955 75.4365 101.875 75.4688 101.8C75.9253 100.629 76.3591 99.4391 76.7609 98.2428C76.8179 98.0814 76.933 97.9447 77.0853 97.8574C77.2375 97.7702 77.4168 97.7381 77.5906 97.7671C77.7056 97.7886 77.8101 97.845 77.889 97.9279C77.9617 98.0049 78.0113 98.0994 78.0327 98.2016C78.054 98.3038 78.0463 98.4099 78.0103 98.5087ZM74.1759 108.042C73.6263 109.223 73.0437 110.387 72.4384 111.534C72.3605 111.686 72.2281 111.807 72.0658 111.873C71.9034 111.939 71.722 111.947 71.5552 111.894C71.478 111.862 71.4088 111.815 71.3521 111.755C71.2954 111.695 71.2524 111.625 71.2259 111.548C71.1994 111.471 71.1901 111.389 71.1984 111.309C71.2068 111.228 71.2326 111.149 71.2744 111.078C71.861 109.954 72.4239 108.801 73.0169 107.636C73.0876 107.48 73.2154 107.354 73.3758 107.282C73.5363 107.21 73.7182 107.198 73.8867 107.247C73.9762 107.271 74.0569 107.319 74.12 107.384C74.1952 107.476 74.2405 107.587 74.2504 107.704C74.2604 107.821 74.2345 107.938 74.1759 108.042ZM69.2383 117.204C68.5472 118.329 67.8231 119.437 67.095 120.506C67.0016 120.65 66.8552 120.755 66.6853 120.8C66.5154 120.845 66.3345 120.827 66.1791 120.749C66.1072 120.706 66.0454 120.65 65.9978 120.583C65.9503 120.516 65.9179 120.44 65.903 120.36C65.888 120.28 65.8907 120.198 65.9109 120.119C65.9311 120.039 65.9684 119.965 66.0203 119.9C66.7371 118.823 67.4436 117.747 68.1293 116.672C68.216 116.523 68.3579 116.409 68.5267 116.355C68.6955 116.301 68.8788 116.31 69.0402 116.379C69.0973 116.403 69.1476 116.439 69.1867 116.485C69.272 116.584 69.3228 116.707 69.3321 116.836C69.3413 116.964 69.3085 117.093 69.2383 117.204ZM63.1266 125.811C62.3004 126.839 61.4421 127.86 60.5601 128.854C60.4466 128.982 60.2863 129.063 60.1128 129.081C59.9393 129.098 59.766 129.051 59.6291 128.948C59.5633 128.896 59.5088 128.833 59.4687 128.761C59.4286 128.689 59.4037 128.61 59.3955 128.529C59.3873 128.448 59.3959 128.365 59.4208 128.287C59.4457 128.209 59.4865 128.136 59.5408 128.072C60.4041 127.101 61.253 126.09 62.0606 125.084C62.1636 124.948 62.3163 124.854 62.4878 124.822C62.6593 124.79 62.8365 124.821 62.9835 124.911L63.0743 124.982C63.1881 125.089 63.2564 125.232 63.2661 125.385C63.2757 125.539 63.226 125.69 63.1266 125.811ZM55.9562 133.66C55.2043 134.389 54.4401 135.1 53.6551 135.812L53.0122 136.38C52.8905 136.497 52.726 136.564 52.5542 136.567C52.3824 136.569 52.2171 136.506 52.0939 136.392C52.0386 136.329 51.997 136.256 51.9715 136.178C51.946 136.099 51.937 136.016 51.9453 135.934C51.9535 135.851 51.9788 135.771 52.0195 135.698C52.0602 135.625 52.1156 135.561 52.1824 135.508L52.815 134.942C53.5812 134.252 54.3362 133.552 55.0788 132.834C55.1906 132.707 55.3492 132.626 55.521 132.609C55.6928 132.591 55.8643 132.639 55.9994 132.741C56.0652 132.799 56.1177 132.869 56.1535 132.948C56.1894 133.027 56.2078 133.111 56.2077 133.198C56.2075 133.284 56.1887 133.369 56.1526 133.448C56.1164 133.527 56.0636 133.598 55.9976 133.656L55.9562 133.66ZM48.0012 139.74C48.096 139.878 48.1321 140.046 48.102 140.21C48.0718 140.373 47.9779 140.52 47.8393 140.62C46.7707 141.422 45.6805 142.215 44.5748 142.96C44.5082 143.01 44.4318 143.048 44.3502 143.07C44.2686 143.092 44.1834 143.098 44.0996 143.087C44.0158 143.077 43.9351 143.051 43.8622 143.01C43.7894 142.969 43.7259 142.915 43.6755 142.85C43.5901 142.705 43.5647 142.535 43.6045 142.372C43.6443 142.21 43.7464 142.067 43.8902 141.974C44.9741 141.221 46.055 140.439 47.0926 139.64C47.2151 139.539 47.3723 139.485 47.5333 139.489C47.6942 139.493 47.8472 139.555 47.9622 139.663L48.0012 139.74ZM39.2006 145.723C39.276 145.876 39.2883 146.051 39.2348 146.213C39.1814 146.375 39.0662 146.512 38.9125 146.597C37.7575 147.266 36.5808 147.928 35.399 148.539C35.3267 148.581 35.2464 148.609 35.163 148.621C35.0795 148.632 34.9946 148.627 34.9134 148.606C34.8322 148.586 34.7563 148.549 34.6905 148.499C34.6246 148.449 34.57 148.386 34.53 148.315C34.4658 148.158 34.4653 147.982 34.5285 147.824C34.5918 147.665 34.7142 147.534 34.8718 147.457C36.0339 146.857 37.1919 146.218 38.3159 145.551C38.4373 145.47 38.5843 145.432 38.731 145.445C38.8776 145.458 39.0144 145.52 39.1171 145.621C39.1758 145.641 39.229 145.674 39.273 145.716L39.2006 145.723ZM29.7603 150.545C29.8096 150.708 29.7941 150.882 29.7167 151.035C29.6394 151.188 29.5058 151.308 29.3421 151.372C28.1183 151.877 26.8614 152.366 25.6099 152.804C25.5327 152.835 25.4496 152.851 25.3659 152.85C25.2823 152.849 25.1999 152.83 25.1244 152.796C25.0489 152.762 24.9819 152.713 24.9278 152.652C24.8737 152.591 24.8338 152.519 24.8106 152.442C24.7713 152.278 24.7969 152.105 24.8823 151.957C24.9678 151.809 25.1071 151.697 25.2732 151.641C26.504 151.206 27.7412 150.729 28.938 150.267C29.0528 150.213 29.1819 150.194 29.3075 150.214C29.4331 150.234 29.5489 150.291 29.6388 150.377C29.7163 150.414 29.7829 150.47 29.8327 150.538L29.7603 150.545ZM19.8124 153.961C19.8339 154.131 19.7899 154.303 19.6886 154.445C19.5874 154.587 19.436 154.688 19.263 154.73C17.9901 155.06 16.6925 155.352 15.4022 155.612C15.3221 155.63 15.2391 155.632 15.1587 155.617C15.0782 155.602 15.0021 155.571 14.9353 155.525C14.8686 155.48 14.8127 155.421 14.7713 155.353C14.7299 155.285 14.704 155.209 14.6953 155.131C14.68 154.96 14.7312 154.79 14.8391 154.653C14.9469 154.515 15.1036 154.421 15.2787 154.389C16.5379 154.131 17.8055 153.852 19.0578 153.525C19.1631 153.496 19.2743 153.495 19.3799 153.521C19.4854 153.548 19.5815 153.601 19.6581 153.675C19.7633 153.742 19.8428 153.84 19.8848 153.954L19.8124 153.961Z" fill="#455A64"/>
</svg>
