<svg width="144" height="180" viewBox="0 0 144 180" fill="none" xmlns="http://www.w3.org/2000/svg">
<path d="M143.217 144.491L76.1588 142.555L58.9415 162.22L143.217 144.491Z" fill="#EC5E63"/>
<g opacity="0.15">
<path d="M143.217 144.491L76.1588 142.555L58.9415 162.22L143.217 144.491Z" fill="white"/>
</g>
<path d="M143.217 144.491L80.4018 134.717L83.251 118.398L143.217 144.491Z" fill="#EC5E63"/>
<g opacity="0.15">
<path d="M143.217 144.491L80.4018 134.717L83.251 118.398L143.217 144.491Z" fill="white"/>
</g>
<path d="M80.4018 134.718L85.256 142.816L143.217 144.491L80.4018 134.718Z" fill="#EC5E63"/>
<g opacity="0.2">
<path d="M80.4018 134.718L85.256 142.816L143.217 144.491L80.4018 134.718Z" fill="black"/>
</g>
<path d="M71.8802 136.692C72.0105 136.627 72.1125 136.517 72.1665 136.382C72.2267 136.221 72.2256 136.044 72.1634 135.883C72.1012 135.723 71.9822 135.592 71.8291 135.513L70.1373 134.601C70.0677 134.562 69.9904 134.538 69.9108 134.531C69.8312 134.524 69.751 134.535 69.6756 134.561C69.6002 134.588 69.5315 134.63 69.4739 134.686C69.4163 134.741 69.3713 134.808 69.3418 134.883C69.2819 135.043 69.2822 135.22 69.3425 135.381C69.4029 135.541 69.5193 135.674 69.6702 135.756C70.2297 136.058 70.7898 136.338 71.3584 136.636C71.4352 136.685 71.5223 136.716 71.6128 136.725C71.7034 136.735 71.7949 136.723 71.8802 136.692Z" fill="#455A64"/>
<path d="M64.2274 132.727C63.1423 132.084 62.0741 131.423 61.0229 130.742C60.8797 130.648 60.7754 130.506 60.7292 130.341C60.6829 130.176 60.6979 130 60.7713 129.845C60.8069 129.774 60.8575 129.712 60.9196 129.662C60.9816 129.613 61.0537 129.577 61.1307 129.558C61.2078 129.539 61.288 129.537 61.366 129.552C61.444 129.567 61.5178 129.598 61.5824 129.645C62.6324 130.314 63.6873 130.971 64.7107 131.631C64.8589 131.718 64.9695 131.856 65.0211 132.02C65.0726 132.184 65.0614 132.361 64.9895 132.516C64.9371 132.634 64.8437 132.728 64.7269 132.782C64.6447 132.81 64.5574 132.82 64.471 132.81C64.3847 132.801 64.3015 132.772 64.2274 132.727ZM55.8106 127.166C54.7897 126.416 53.7694 125.644 52.7764 124.859C52.6412 124.754 52.5492 124.603 52.5178 124.435C52.4864 124.267 52.5177 124.093 52.6058 123.946C52.6503 123.879 52.709 123.822 52.7776 123.779C52.8463 123.736 52.9234 123.709 53.0036 123.699C53.0838 123.689 53.1652 123.697 53.2423 123.721C53.3193 123.745 53.3901 123.786 53.4499 123.841C54.4255 124.611 55.4282 125.369 56.4358 126.114C56.5757 126.213 56.6745 126.36 56.7134 126.527C56.7523 126.694 56.7286 126.869 56.6469 127.02C56.5864 127.111 56.5024 127.184 56.4037 127.232C56.3079 127.275 56.2024 127.291 56.0982 127.279C55.9939 127.268 55.8946 127.228 55.8106 127.166ZM47.9064 120.737C46.9515 119.869 45.9925 118.991 45.1102 118.089C44.9881 117.972 44.9133 117.814 44.9 117.645C44.8867 117.477 44.9359 117.309 45.0381 117.174C45.0923 117.114 45.1585 117.066 45.2324 117.033C45.3062 117 45.3862 116.983 45.4671 116.983C45.548 116.983 45.6281 116.999 45.7021 117.032C45.7762 117.065 45.8426 117.112 45.8971 117.172C46.7801 118.052 47.7035 118.924 48.6499 119.775C48.7769 119.888 48.858 120.045 48.8778 120.214C48.8977 120.384 48.8549 120.555 48.7577 120.695C48.7036 120.763 48.6347 120.817 48.5562 120.855C48.4483 120.901 48.3292 120.914 48.2137 120.893C48.0982 120.873 47.9914 120.818 47.9064 120.737ZM40.69 113.416C39.8368 112.435 38.9934 111.426 38.2031 110.437C38.091 110.309 38.0326 110.143 38.04 109.973C38.0474 109.803 38.12 109.643 38.2427 109.525C38.305 109.474 38.3772 109.435 38.4549 109.413C38.5326 109.39 38.6142 109.384 38.6944 109.394C38.7747 109.404 38.852 109.431 38.9215 109.473C38.9911 109.514 39.0513 109.569 39.0986 109.635C39.8756 110.619 40.6973 111.605 41.5602 112.56C41.6741 112.685 41.7377 112.847 41.7387 113.016C41.7396 113.184 41.6778 113.347 41.5653 113.473L41.402 113.549C41.2848 113.606 41.1524 113.624 41.0242 113.6C40.8961 113.576 40.779 113.512 40.69 113.416ZM34.3263 105.225C33.6098 104.158 32.8988 103.054 32.2193 101.948C32.123 101.81 32.0848 101.64 32.113 101.474C32.1412 101.308 32.2335 101.16 32.37 101.062C32.514 100.983 32.6833 100.963 32.8416 101.007C33 101.05 33.135 101.154 33.2178 101.296C33.8799 102.389 34.5824 103.474 35.2905 104.524C35.3896 104.657 35.4338 104.823 35.4141 104.988C35.3944 105.153 35.3122 105.305 35.1844 105.411L35.0847 105.457C34.9508 105.511 34.8024 105.518 34.6644 105.475C34.5263 105.433 34.407 105.345 34.3263 105.225ZM29.0544 96.2509C28.633 95.344 28.1573 94.4624 27.7065 93.492L27.3525 92.7302C27.3146 92.658 27.2912 92.5791 27.2838 92.4979C27.2764 92.4167 27.285 92.3348 27.3093 92.257C27.3336 92.1791 27.3729 92.1068 27.4252 92.0442C27.4774 91.9816 27.5415 91.9299 27.6138 91.8921C27.7692 91.834 27.9412 91.8396 28.0926 91.9076C28.2439 91.9756 28.3623 92.1006 28.422 92.2554L28.7675 92.999C29.1889 93.9059 29.6102 94.8128 30.0315 95.7197C30.1145 95.865 30.1372 96.037 30.095 96.1988C30.0527 96.3607 29.9487 96.4995 29.8053 96.5857C29.6609 96.6312 29.5047 96.6223 29.3664 96.5607C29.228 96.499 29.117 96.3888 29.0544 96.2509ZM25.6881 87.1301C25.5273 87.1724 25.3563 87.1514 25.2105 87.0715C25.0647 86.9916 24.955 86.8588 24.9041 86.7005C24.4603 85.4842 24.0353 84.2372 23.6369 82.9998C23.608 82.9232 23.5951 82.8414 23.599 82.7595C23.6029 82.6777 23.6235 82.5975 23.6596 82.5239C23.6956 82.4504 23.7464 82.3849 23.8087 82.3317C23.871 82.2785 23.9436 82.2386 24.0219 82.2146C24.1843 82.1764 24.3552 82.2032 24.4981 82.2892C24.641 82.3752 24.7447 82.5136 24.7871 82.675C25.1771 83.8942 25.5937 85.1231 26.0248 86.3121C26.0837 86.4558 26.0875 86.6162 26.0354 86.7625C25.9833 86.9088 25.879 87.0308 25.7425 87.1049L25.6881 87.1301ZM22.6518 77.2717C22.4851 77.293 22.3166 77.2499 22.1806 77.1512C22.0446 77.0525 21.9513 76.9057 21.9199 76.7406C21.6206 75.4793 21.3576 74.2011 21.1302 72.9285C21.1103 72.8502 21.107 72.7687 21.1205 72.6891C21.1339 72.6095 21.1638 72.5336 21.2083 72.4663C21.2528 72.3989 21.3108 72.3416 21.3787 72.2979C21.4466 72.2543 21.5229 72.2253 21.6026 72.2128C21.7718 72.2013 21.9392 72.2535 22.0719 72.3592C22.2047 72.4648 22.2931 72.6162 22.3199 72.7837C22.5437 74.025 22.8026 75.2941 23.0892 76.5282C23.1285 76.6621 23.1198 76.8056 23.0647 76.9339C23.0095 77.0621 22.9114 77.1671 22.7871 77.2308L22.6518 77.2717ZM20.9334 67.1648C20.7643 67.1619 20.6026 67.0951 20.4807 66.9779C20.3587 66.8608 20.2856 66.7018 20.276 66.533C20.1604 65.2635 20.0859 63.9639 20.0422 62.6831C20.0362 62.6032 20.0469 62.523 20.0734 62.4475C20.1 62.372 20.142 62.3028 20.1966 62.2442C20.2512 62.1857 20.3174 62.1391 20.3909 62.1074C20.4644 62.0757 20.5437 62.0596 20.6238 62.06C20.7929 62.0781 20.9498 62.1563 21.0661 62.2803C21.1824 62.4044 21.2504 62.566 21.2576 62.7359C21.2929 63.9986 21.3366 65.2794 21.4801 66.5139C21.4954 66.6359 21.4722 66.7597 21.4138 66.8679C21.3553 66.9761 21.2645 67.0634 21.154 67.1174C21.0858 67.1521 21.0098 67.1684 20.9334 67.1648ZM20.7466 57.008C20.5771 56.9773 20.4247 56.8852 20.3189 56.7493C20.213 56.6133 20.161 56.4431 20.1728 56.2712C20.2583 55.0075 20.371 53.7311 20.5097 52.4869C20.5147 52.4064 20.537 52.3279 20.5751 52.2568C20.6131 52.1858 20.6661 52.1238 20.7304 52.0751C20.7947 52.0264 20.8687 51.9921 20.9475 51.9746C21.0262 51.9572 21.1078 51.957 21.1866 51.9739C21.352 52.0176 21.4965 52.1188 21.5942 52.2593C21.6918 52.3999 21.7361 52.5706 21.7193 52.7409C21.5722 53.967 21.4601 55.221 21.3843 56.4581C21.3812 56.5642 21.3489 56.6674 21.2911 56.7565C21.2334 56.8455 21.1522 56.917 21.0566 56.9632C20.9598 57.0078 20.8521 57.0234 20.7466 57.008ZM21.9852 47.071C21.8252 47.0144 21.6912 46.9015 21.6083 46.7535C21.5253 46.6054 21.4989 46.4322 21.5341 46.2662C21.7929 45.0433 22.088 43.8035 22.4084 42.6182C22.4295 42.541 22.4672 42.4694 22.5188 42.4083C22.5704 42.3473 22.6347 42.2982 22.7072 42.2645C22.7798 42.2308 22.8587 42.2133 22.9387 42.2133C23.0187 42.2132 23.0977 42.2306 23.1703 42.2643C23.3275 42.3325 23.4542 42.456 23.5265 42.6115C23.5987 42.7669 23.6114 42.9435 23.5621 43.1077C23.2465 44.2797 22.9527 45.4748 22.6987 46.6844C22.6823 46.7731 22.6452 46.8567 22.5902 46.9282C22.5353 46.9997 22.4641 47.0572 22.3827 47.0959C22.3128 47.1266 22.2372 47.1421 22.1608 47.1415C22.0845 47.1408 22.0092 47.124 21.9398 47.0921L21.9852 47.071ZM24.665 37.5782C24.5078 37.51 24.381 37.3864 24.3088 37.231C24.2366 37.0755 24.2239 36.899 24.2732 36.7348C24.7047 35.575 25.1719 34.4207 25.6601 33.3118C25.692 33.238 25.7394 33.172 25.7991 33.1182C25.8588 33.0644 25.9294 33.024 26.006 32.9999C26.0827 32.9758 26.1637 32.9685 26.2434 32.9785C26.3232 32.9884 26.3998 33.0154 26.4682 33.0576C26.6156 33.1452 26.727 33.2825 26.7822 33.4448C26.8374 33.6072 26.8328 33.7839 26.7694 33.9432C26.2818 35.0298 25.8243 36.1575 25.3935 37.2949C25.345 37.4341 25.2437 37.5485 25.1114 37.6134C25.0336 37.6479 24.949 37.6646 24.8639 37.6621C24.7789 37.6597 24.6954 37.6382 24.6197 37.5993L24.665 37.5782ZM28.6728 28.7365C28.5358 28.6363 28.4385 28.491 28.3983 28.3261C28.358 28.1612 28.3772 27.9874 28.4526 27.8354C29.0562 26.761 29.6808 25.7321 30.3307 24.7575C30.3757 24.6919 30.4341 24.6365 30.5022 24.5952C30.5702 24.5539 30.6463 24.5276 30.7253 24.518C30.8043 24.5085 30.8845 24.5158 30.9605 24.5397C31.0364 24.5635 31.1064 24.6033 31.1658 24.6563C31.2997 24.7602 31.3907 24.9098 31.4214 25.0766C31.4521 25.2433 31.4204 25.4155 31.3322 25.5603C30.6781 26.5258 30.0492 27.5457 29.4541 28.6382C29.3969 28.7373 29.3102 28.8161 29.206 28.8637C29.1085 28.8962 29.0043 28.9035 28.9031 28.885C28.802 28.8664 28.7071 28.8226 28.6275 28.7575L28.6728 28.7365Z" fill="#455A64"/>
<path d="M34.8335 21.1109L34.9967 21.035C35.3914 20.631 35.8228 20.2644 36.2854 19.9401C36.419 19.8382 36.508 19.6885 36.5336 19.5224C36.5592 19.3563 36.5195 19.1868 36.4228 19.0493C36.383 18.9784 36.3293 18.9161 36.265 18.8662C36.2008 18.8163 36.1272 18.7798 36.0486 18.7588C35.97 18.7377 35.8879 18.7326 35.8073 18.7438C35.7267 18.755 35.6492 18.7821 35.5792 18.8237C35.0662 19.1898 34.5846 19.598 34.1393 20.044C34.0222 20.1677 33.9566 20.3314 33.9559 20.5018C33.9551 20.6721 34.0193 20.8363 34.1353 20.961C34.2212 21.0562 34.3349 21.1219 34.4602 21.1488C34.5855 21.1757 34.7161 21.1624 34.8335 21.1109Z" fill="#455A64"/>
</svg>
