<svg width="157" height="109" viewBox="0 0 157 109" fill="none" xmlns="http://www.w3.org/2000/svg">
<path d="M69.3295 29.6654L10.4472 3.77246L53.7083 41.6254L69.3295 29.6654Z" fill="#EC5E63"/>
<path opacity="0.15" d="M69.3295 29.6654L10.4472 3.77246L53.7083 41.6254L69.3295 29.6654Z" fill="white"/>
<path d="M10.4472 3.77236L74.9437 22.0681L90.565 10.1081L10.4472 3.77236Z" fill="#EC5E63"/>
<path opacity="0.15" d="M10.4472 3.77236L74.9437 22.0681L90.565 10.1081L10.4472 3.77236Z" fill="white"/>
<path d="M74.9437 22.0682L73.0956 38.3236L69.3295 29.6654L10.4472 3.77246L74.9437 22.0682Z" fill="#EC5E63"/>
<path opacity="0.2" d="M74.9437 22.0682L73.0956 38.3236L69.3295 29.6654L10.4472 3.77246L74.9437 22.0682Z" fill="black"/>
<path d="M73.0956 38.3234L64.1188 33.6548L69.3296 29.6652L73.0956 38.3234Z" fill="#EC5E63"/>
<path opacity="0.2" d="M69.3296 29.6652L64.1188 33.6548L65.552 34.397L69.3296 29.6652Z" fill="black"/>
<path d="M86.7083 28.806C86.6462 28.8417 86.592 28.8896 86.549 28.9468C86.5059 29.0041 86.4749 29.0694 86.4578 29.139C86.4173 29.3061 86.4379 29.4822 86.516 29.6354C86.594 29.7886 86.7243 29.9088 86.8833 29.9743L88.6337 30.6732C88.7067 30.706 88.7861 30.7224 88.8661 30.7214C88.9461 30.7203 89.025 30.7018 89.0971 30.6671C89.1693 30.6324 89.233 30.5824 89.2838 30.5206C89.3346 30.4588 89.3713 30.3866 89.3914 30.3091C89.4347 30.1447 89.4176 29.9702 89.3431 29.8173C89.2687 29.6644 89.1419 29.5434 88.9857 29.4761L87.2154 28.7749C87.1342 28.7405 87.0462 28.7254 86.9582 28.7308C86.8702 28.7362 86.7847 28.7619 86.7083 28.806Z" fill="#455A64"/>
<path d="M94.7214 31.9922C95.8567 32.5282 96.9895 33.0841 98.1014 33.6476C98.2536 33.7266 98.3726 33.8573 98.437 34.0162C98.5014 34.1751 98.507 34.3518 98.4527 34.5145C98.4231 34.5889 98.3778 34.6561 98.3199 34.7115C98.262 34.7669 98.193 34.8093 98.1173 34.8357C98.0417 34.8622 97.9612 34.8721 97.8815 34.8647C97.8017 34.8574 97.7243 34.8331 97.6548 34.7933C96.5528 34.231 95.4287 33.6862 94.3034 33.1513C94.1502 33.0781 94.0289 32.9517 93.9621 32.7956C93.8952 32.6396 93.8873 32.4646 93.9398 32.3031C93.9779 32.1784 94.0624 32.073 94.1758 32.0086C94.2581 31.9605 94.3512 31.9337 94.4465 31.9308C94.5418 31.9279 94.6364 31.949 94.7214 31.9922ZM103.645 36.6848C104.746 37.3376 105.833 37.9485 106.894 38.6872C107.039 38.777 107.145 38.9171 107.193 39.0808C107.241 39.2444 107.226 39.4199 107.152 39.5734C107.114 39.6441 107.061 39.7058 106.997 39.7545C106.933 39.8033 106.86 39.838 106.782 39.8564C106.703 39.8748 106.622 39.8765 106.543 39.8612C106.464 39.846 106.39 39.8143 106.324 39.7682C105.276 39.0913 104.205 38.432 103.121 37.8013C102.976 37.7136 102.867 37.5765 102.813 37.4151C102.76 37.2537 102.767 37.0786 102.832 36.9215C102.877 36.8182 102.954 36.732 103.052 36.6755C103.143 36.6236 103.246 36.597 103.35 36.5986C103.454 36.6003 103.556 36.63 103.645 36.6848ZM112.148 42.3046C113.186 43.0708 114.2 43.8645 115.192 44.6758C115.324 44.7812 115.414 44.931 115.445 45.0975C115.475 45.2639 115.444 45.4358 115.358 45.5812C115.31 45.6469 115.249 45.7018 115.179 45.7424C115.108 45.783 115.03 45.8084 114.95 45.817C114.869 45.8256 114.787 45.8171 114.71 45.7921C114.633 45.7671 114.562 45.7262 114.501 45.672C113.527 44.883 112.52 44.1103 111.507 43.3067C111.369 43.2072 111.273 43.0605 111.237 42.8947C111.2 42.7288 111.226 42.5554 111.31 42.4076C111.353 42.3287 111.416 42.263 111.493 42.2177C111.599 42.1666 111.717 42.1476 111.834 42.1631C111.95 42.1785 112.059 42.2277 112.148 42.3046ZM120.055 48.8815C121.008 49.7687 121.938 50.6833 122.827 51.5933C122.949 51.7116 123.02 51.8713 123.029 52.0403C123.037 52.2094 122.981 52.3753 122.872 52.5047C122.815 52.5632 122.747 52.6092 122.671 52.6397C122.596 52.6702 122.515 52.6844 122.434 52.6815C122.352 52.6786 122.272 52.6586 122.199 52.6229C122.126 52.5871 122.061 52.5363 122.009 52.4739C121.108 51.5727 120.206 50.6814 119.301 49.81C119.173 49.6968 119.093 49.5396 119.075 49.3697C119.058 49.1997 119.105 49.0295 119.208 48.8928C119.243 48.8441 119.289 48.8046 119.342 48.7777C119.457 48.7186 119.587 48.6969 119.715 48.7155C119.843 48.7341 119.962 48.7921 120.055 48.8815ZM127.172 56.443C128.001 57.4365 128.818 58.4587 129.602 59.4972C129.703 59.631 129.749 59.7987 129.729 59.9652C129.71 60.1318 129.627 60.2844 129.497 60.3911C129.433 60.442 129.36 60.4798 129.281 60.5022C129.202 60.5246 129.12 60.5313 129.039 60.5217C128.957 60.5122 128.879 60.4867 128.808 60.4466C128.736 60.4066 128.674 60.3528 128.623 60.2885C127.856 59.2721 127.049 58.261 126.236 57.2897C126.125 57.1641 126.066 57.0009 126.07 56.8331C126.075 56.6653 126.144 56.5056 126.262 56.3865L126.351 56.3164C126.479 56.2322 126.634 56.1985 126.786 56.2219C126.937 56.2453 127.075 56.3241 127.172 56.443ZM133.325 64.8378C133.878 65.6982 134.411 66.5662 134.941 67.454L135.359 68.1778C135.448 68.317 135.479 68.4856 135.445 68.6474C135.411 68.8091 135.315 68.951 135.177 69.0424C135.104 69.0811 135.024 69.1047 134.942 69.112C134.86 69.1193 134.777 69.1101 134.698 69.0849C134.619 69.0597 134.547 69.0191 134.484 68.9654C134.421 68.9117 134.37 68.846 134.333 68.7722L133.913 68.0583C133.401 67.1927 132.877 66.3358 132.332 65.4865C132.231 65.3544 132.186 65.1884 132.205 65.0235C132.225 64.8586 132.307 64.7076 132.436 64.6025C132.506 64.553 132.586 64.5186 132.67 64.5016C132.755 64.4846 132.842 64.4853 132.926 64.5037C133.01 64.5221 133.089 64.5577 133.158 64.6084C133.228 64.6591 133.286 64.7237 133.329 64.798L133.325 64.8378ZM137.583 73.594C137.738 73.5343 137.909 73.5361 138.063 73.599C138.217 73.662 138.34 73.7814 138.409 73.9327C138.966 75.1056 139.511 76.2973 140.004 77.493C140.04 77.5663 140.06 77.6459 140.064 77.7272C140.069 77.8084 140.056 77.8897 140.029 77.9662C140.001 78.0427 139.958 78.1129 139.903 78.1726C139.848 78.2323 139.781 78.2803 139.707 78.3139C139.548 78.3635 139.376 78.3512 139.226 78.2794C139.075 78.2076 138.958 78.0816 138.896 77.9268C138.39 76.7497 137.854 75.5692 137.294 74.426C137.22 74.2894 137.201 74.1304 137.239 73.9802C137.277 73.83 137.37 73.6995 137.5 73.6145L137.583 73.594ZM141.569 83.1238C141.734 83.0854 141.907 83.111 142.054 83.1955C142.201 83.2801 142.311 83.4172 142.361 83.5793C142.771 84.8055 143.168 86.0503 143.516 87.2893C143.542 87.3661 143.552 87.4474 143.546 87.5282C143.539 87.609 143.517 87.6877 143.479 87.7595C143.442 87.8313 143.39 87.8947 143.327 87.946C143.264 87.9972 143.192 88.0352 143.114 88.0577C142.946 88.0846 142.775 88.0479 142.633 87.9549C142.491 87.8618 142.389 87.7192 142.347 87.5548C142.007 86.3369 141.627 85.1142 141.214 83.9178C141.16 83.7867 141.154 83.6407 141.197 83.5057C141.241 83.3707 141.331 83.2555 141.451 83.1805C141.483 83.1298 141.526 83.0867 141.577 83.0543L141.569 83.1238ZM144.285 93.008C144.453 92.9961 144.621 93.0477 144.754 93.1527C144.887 93.2577 144.976 93.4085 145.003 93.5756C145.238 94.8316 145.45 96.1151 145.613 97.3828C145.628 97.4619 145.626 97.5433 145.607 97.6216C145.588 97.6999 145.553 97.7733 145.504 97.8369C145.454 97.9006 145.392 97.9531 145.321 97.9909C145.25 98.0288 145.172 98.0511 145.091 98.0565C144.923 98.0586 144.759 97.998 144.633 97.8864C144.506 97.7748 144.426 97.6202 144.407 97.4526C144.241 96.2048 144.037 94.9423 143.838 93.7208C143.81 93.6016 143.819 93.4764 143.865 93.3627C143.911 93.249 143.991 93.1524 144.094 93.0863C144.147 93.0214 144.215 92.9707 144.293 92.9384L144.285 93.008ZM145.52 103.071C145.69 103.086 145.849 103.164 145.966 103.289C146.083 103.414 146.15 103.578 146.155 103.749C146.208 105.014 146.218 106.294 146.201 107.561C146.201 107.64 146.185 107.718 146.154 107.79C146.122 107.863 146.075 107.927 146.017 107.98C145.958 108.033 145.889 108.074 145.814 108.098C145.739 108.122 145.659 108.131 145.581 108.122C145.411 108.1 145.255 108.016 145.144 107.886C145.033 107.756 144.974 107.589 144.979 107.417C144.993 106.18 144.989 104.931 144.934 103.687C144.928 103.582 144.95 103.477 144.998 103.383C145.046 103.29 145.119 103.211 145.208 103.155C145.295 103.07 145.407 103.016 145.528 103.001L145.52 103.071Z" fill="#455A64"/>
</svg>
