<svg width="170" height="194" viewBox="0 0 170 194" fill="none" xmlns="http://www.w3.org/2000/svg">
<path d="M0.255349 50.9312L76.4641 41.9427L94.8111 18.1915L0.255349 50.9312Z" fill="#EC5E63"/>
<g opacity="0.15">
<path d="M0.25486 50.9311L76.4636 41.9427L94.8106 18.1915L0.25486 50.9311Z" fill="white"/>
</g>
<path d="M0.255059 50.9309L72.1235 50.9768L69.8777 68.8031L0.255059 50.9309Z" fill="#EC5E63"/>
<g opacity="0.15">
<path d="M0.255059 50.9309L72.1235 50.9768L69.8777 68.8031L0.255059 50.9309Z" fill="white"/>
</g>
<path d="M72.123 50.9769L66.1251 43.1632L0.254632 50.931L72.123 50.9769Z" fill="#EC5E63"/>
<g opacity="0.2">
<path d="M72.123 50.9769L66.1251 43.1632L0.254632 50.931L72.123 50.9769Z" fill="black"/>
</g>
<path d="M81.6731 47.4735C81.5292 47.5634 81.4202 47.6974 81.367 47.8497C81.3084 48.0308 81.3204 48.2194 81.4007 48.3795C81.481 48.5397 81.624 48.6602 81.8024 48.718L83.7773 49.4094C83.8587 49.4397 83.9477 49.4523 84.0385 49.4466C84.1293 49.4408 84.2197 49.4167 84.3036 49.376C84.3875 49.3352 84.463 49.2787 84.5249 49.2102C84.5869 49.1418 84.6339 49.063 84.6629 48.9791C84.7211 48.7984 84.7101 48.6103 84.6319 48.4496C84.5537 48.2889 84.4136 48.1664 84.2375 48.1048C83.5843 47.8753 82.9318 47.6698 82.2686 47.4463C82.1785 47.407 82.0778 47.389 81.9745 47.3937C81.8712 47.3984 81.768 47.4257 81.6731 47.4735Z" fill="#455A64"/>
<path d="M90.5971 50.4291C91.8673 50.9338 93.1194 51.4614 94.3533 52.0119C94.5215 52.0883 94.6485 52.2229 94.7109 52.3907C94.7734 52.5585 94.767 52.7483 94.6931 52.925C94.6569 53.0063 94.6033 53.081 94.5359 53.1438C94.4685 53.2067 94.3889 53.2563 94.3026 53.2893C94.2163 53.3222 94.1254 53.3377 94.036 53.3347C93.9466 53.3317 93.861 53.3102 93.7849 53.2718C92.5529 52.7322 91.3162 52.2076 90.1149 51.674C89.9416 51.6065 89.8077 51.4774 89.7393 51.3118C89.6709 51.1463 89.673 50.9563 89.7451 50.7788C89.7975 50.6453 89.8977 50.5296 90.027 50.4533C90.1185 50.4097 90.2171 50.385 90.3156 50.3808C90.4142 50.3766 90.5103 50.3931 90.5971 50.4291ZM100.484 54.9574C101.688 55.5865 102.892 56.2394 104.067 56.9103C104.226 56.9998 104.34 57.1451 104.386 57.3189C104.431 57.4927 104.406 57.6828 104.315 57.8534C104.269 57.9324 104.206 58.0027 104.13 58.0594C104.055 58.1161 103.969 58.1577 103.879 58.1816C103.789 58.2055 103.696 58.211 103.607 58.1977C103.518 58.1844 103.435 58.1527 103.364 58.1047C102.21 57.4457 101.027 56.8046 99.8382 56.1785C99.6735 56.0963 99.5526 55.9565 99.4983 55.7854C99.4441 55.6144 99.4603 55.424 99.5439 55.2504C99.6071 55.1433 99.698 55.0515 99.8071 54.9846C99.9132 54.9234 100.032 54.8886 100.151 54.8838C100.27 54.8791 100.385 54.9044 100.484 54.9574ZM109.842 60.4918C110.978 61.2582 112.119 62.0336 113.175 62.8479C113.321 62.9523 113.415 63.1079 113.44 63.2851C113.466 63.4623 113.42 63.6487 113.312 63.8089C113.254 63.8817 113.182 63.9437 113.1 63.9909C113.018 64.0381 112.929 64.0695 112.837 64.0831C112.745 64.0966 112.653 64.092 112.567 64.0696C112.481 64.0471 112.403 64.0073 112.337 63.9527C111.282 63.1623 110.182 62.3869 109.056 61.6384C108.905 61.5382 108.804 61.3852 108.771 61.2082C108.738 61.0313 108.777 60.8425 108.879 60.6774C108.936 60.5963 109.011 60.5268 109.097 60.4743C109.217 60.4074 109.351 60.3734 109.484 60.3765C109.616 60.3796 109.741 60.4197 109.842 60.4918ZM118.473 67.0892C119.501 67.993 120.519 68.9267 121.475 69.8484C121.61 69.9659 121.687 70.1329 121.688 70.3147C121.69 70.4966 121.618 70.6791 121.486 70.8244C121.418 70.8897 121.338 70.9423 121.252 70.9791C121.165 71.0159 121.073 71.0361 120.981 71.0384C120.889 71.0407 120.8 71.0251 120.718 70.9925C120.637 70.9598 120.565 70.911 120.508 70.8489C119.567 69.9301 118.575 69.0173 117.538 68.1434C117.401 68.0298 117.319 67.8676 117.308 67.6884C117.296 67.5091 117.357 67.3256 117.477 67.1734L117.657 67.0658C117.787 66.986 117.936 66.9451 118.083 66.9494C118.23 66.9536 118.367 67.0026 118.473 67.0892ZM126.19 74.7527C127.067 75.77 127.941 76.8261 128.779 77.8912C128.896 78.022 128.95 78.1967 128.928 78.3777C128.906 78.5587 128.81 78.7314 128.661 78.8583C128.503 78.9663 128.312 79.0152 128.129 78.9947C127.947 78.9742 127.788 78.8858 127.685 78.7485C126.868 77.6953 126.005 76.6571 125.138 75.6577C125.018 75.5321 124.957 75.3625 124.97 75.1838C124.982 75.005 125.066 74.8307 125.205 74.6966L125.315 74.6308C125.464 74.5513 125.632 74.52 125.791 74.5421C125.95 74.5643 126.091 74.6387 126.19 74.7527ZM132.715 83.4287C133.248 84.3238 133.841 85.1831 134.411 86.1409L134.859 86.8928C134.906 86.9633 134.937 87.0434 134.951 87.1286C134.964 87.2137 134.959 87.3022 134.936 87.389C134.914 87.4758 134.873 87.5592 134.818 87.6344C134.762 87.7096 134.693 87.7751 134.613 87.8272C134.44 87.9146 134.245 87.937 134.069 87.8896C133.893 87.8422 133.751 87.7288 133.674 87.574L133.237 86.84C132.704 85.9449 132.171 85.0498 131.638 84.1546C131.535 84.0138 131.499 83.8346 131.537 83.6555C131.575 83.4764 131.685 83.3116 131.842 83.1964C132.003 83.1241 132.181 83.1079 132.342 83.1507C132.503 83.1935 132.635 83.2924 132.715 83.4287ZM137.086 92.5746C137.266 92.5031 137.461 92.4973 137.632 92.5582C137.802 92.6192 137.934 92.7424 138.002 92.9024C138.579 94.1228 139.136 95.3791 139.663 96.6294C139.701 96.7062 139.72 96.791 139.721 96.8787C139.721 96.9664 139.703 97.0551 139.666 97.1393C139.63 97.2235 139.576 97.3014 139.509 97.3683C139.441 97.4351 139.361 97.4895 139.274 97.528C139.092 97.5953 138.897 97.595 138.729 97.5271C138.562 97.4591 138.436 97.329 138.378 97.1644C137.862 95.932 137.315 94.6936 136.753 93.5C136.678 93.3569 136.664 93.1869 136.714 93.0227C136.764 92.8585 136.875 92.7117 137.026 92.6104L137.086 92.5746ZM141.128 102.559C141.316 102.509 141.509 102.527 141.67 102.61C141.83 102.692 141.945 102.833 141.99 103.004C142.406 104.296 142.782 105.612 143.117 106.928C143.144 107.008 143.153 107.094 143.143 107.181C143.132 107.268 143.103 107.353 143.056 107.432C143.01 107.511 142.948 107.582 142.873 107.639C142.799 107.697 142.714 107.74 142.624 107.767C142.433 107.807 142.24 107.779 142.083 107.688C141.926 107.598 141.816 107.452 141.776 107.278C141.447 105.995 141.076 104.687 140.676 103.422C140.624 103.286 140.625 103.132 140.68 102.987C140.734 102.841 140.839 102.713 140.977 102.625L141.128 102.559ZM143.689 113.025C143.881 113.001 144.069 113.045 144.214 113.15C144.359 113.254 144.452 113.411 144.473 113.589C144.681 114.92 144.844 116.29 144.971 117.645C144.983 117.729 144.976 117.816 144.95 117.901C144.925 117.986 144.881 118.066 144.823 118.137C144.764 118.209 144.692 118.269 144.61 118.315C144.529 118.361 144.44 118.391 144.349 118.404C144.156 118.412 143.973 118.355 143.834 118.242C143.694 118.129 143.607 117.969 143.589 117.789C143.473 116.452 143.346 115.097 143.108 113.808C143.083 113.68 143.102 113.545 143.162 113.42C143.222 113.296 143.319 113.188 143.441 113.112C143.517 113.064 143.602 113.034 143.689 113.025ZM144.515 123.797C144.71 123.802 144.888 123.874 145.016 124.002C145.145 124.129 145.214 124.301 145.211 124.486C145.19 125.844 145.14 127.22 145.058 128.566C145.057 128.653 145.036 128.74 144.997 128.822C144.958 128.904 144.902 128.978 144.832 129.041C144.762 129.103 144.68 129.152 144.592 129.183C144.504 129.215 144.411 129.228 144.321 129.223C144.13 129.204 143.96 129.12 143.841 128.987C143.722 128.854 143.661 128.679 143.67 128.495C143.762 127.167 143.814 125.815 143.825 124.487C143.822 124.373 143.852 124.258 143.913 124.154C143.973 124.05 144.061 123.96 144.166 123.896C144.273 123.832 144.395 123.798 144.515 123.797ZM143.711 134.569C143.896 134.603 144.055 134.701 144.158 134.845C144.261 134.989 144.301 135.169 144.272 135.351C144.052 136.694 143.792 138.062 143.5 139.375C143.481 139.461 143.442 139.543 143.388 139.616C143.333 139.69 143.263 139.753 143.182 139.8C143.102 139.848 143.014 139.88 142.923 139.893C142.832 139.906 142.741 139.901 142.657 139.877C142.475 139.83 142.323 139.72 142.232 139.566C142.141 139.413 142.115 139.227 142.161 139.044C142.449 137.746 142.71 136.427 142.925 135.098C142.938 135.001 142.975 134.906 143.033 134.821C143.091 134.736 143.168 134.663 143.259 134.609C143.336 134.564 143.421 134.535 143.507 134.523C143.594 134.512 143.681 134.517 143.761 134.54L143.711 134.569ZM141.244 145.107C141.427 145.154 141.578 145.264 141.67 145.418C141.761 145.571 141.786 145.757 141.74 145.94C141.321 147.244 140.86 148.549 140.373 149.809C140.342 149.892 140.292 149.97 140.227 150.037C140.163 150.104 140.085 150.159 140 150.197C139.914 150.236 139.823 150.257 139.732 150.259C139.641 150.262 139.552 150.246 139.472 150.212C139.299 150.143 139.165 150.015 139.092 149.852C139.02 149.688 139.014 149.5 139.077 149.32C139.564 148.084 140.015 146.809 140.435 145.528C140.482 145.372 140.59 145.234 140.736 145.143C140.822 145.094 140.917 145.062 141.014 145.051C141.11 145.039 141.206 145.048 141.295 145.077L141.244 145.107ZM137.232 155.171C137.393 155.255 137.512 155.394 137.568 155.562C137.624 155.731 137.612 155.919 137.536 156.093C136.916 157.335 136.27 158.532 135.591 159.676C135.544 159.753 135.481 159.822 135.406 159.877C135.332 159.932 135.247 159.972 135.158 159.996C135.069 160.019 134.977 160.024 134.89 160.011C134.802 159.999 134.72 159.968 134.65 159.921C134.491 159.833 134.379 159.689 134.334 159.516C134.289 159.344 134.315 159.156 134.406 158.987C135.09 157.853 135.742 156.664 136.351 155.404C136.41 155.289 136.504 155.191 136.619 155.124C136.728 155.073 136.845 155.048 136.961 155.051C137.077 155.054 137.187 155.085 137.282 155.141L137.232 155.171Z" fill="#455A64"/>
<path d="M130.702 164.296L130.521 164.404C130.098 164.898 129.63 165.359 129.125 165.78C128.98 165.911 128.888 166.085 128.869 166.266C128.85 166.447 128.905 166.62 129.023 166.751C129.073 166.819 129.137 166.877 129.213 166.919C129.289 166.962 129.375 166.989 129.465 166.998C129.556 167.007 129.649 166.999 129.74 166.974C129.831 166.949 129.917 166.907 129.994 166.852C130.554 166.378 131.076 165.864 131.554 165.316C131.679 165.166 131.744 164.981 131.735 164.799C131.725 164.618 131.642 164.454 131.503 164.34C131.4 164.253 131.267 164.202 131.123 164.194C130.979 164.186 130.832 164.222 130.702 164.296Z" fill="#455A64"/>
</svg>
