<svg width="95" height="95" viewBox="0 0 95 95" fill="none" xmlns="http://www.w3.org/2000/svg">
<path d="M20.3571 0C9.1183 0 0 7.97852 0 17.8125V77.1875C0 87.0215 9.1183 95 20.3571 95H81.4286H88.2143C91.9676 95 95 92.3467 95 89.0625C95 85.7783 91.9676 83.125 88.2143 83.125V71.25C91.9676 71.25 95 68.5967 95 65.3125V5.9375C95 2.65332 91.9676 0 88.2143 0H81.4286H20.3571ZM20.3571 71.25H74.6429V83.125H20.3571C16.6038 83.125 13.5714 80.4717 13.5714 77.1875C13.5714 73.9033 16.6038 71.25 20.3571 71.25ZM27.1429 26.7188C27.1429 25.0859 28.6696 23.75 30.5357 23.75H71.25C73.1161 23.75 74.6429 25.0859 74.6429 26.7188C74.6429 28.3516 73.1161 29.6875 71.25 29.6875H30.5357C28.6696 29.6875 27.1429 28.3516 27.1429 26.7188ZM30.5357 35.625H71.25C73.1161 35.625 74.6429 36.9609 74.6429 38.5938C74.6429 40.2266 73.1161 41.5625 71.25 41.5625H30.5357C28.6696 41.5625 27.1429 40.2266 27.1429 38.5938C27.1429 36.9609 28.6696 35.625 30.5357 35.625Z" fill="#EC5E63"/>
</svg>
