<?xml version="1.0" standalone="no"?>
<!DOCTYPE svg PUBLIC "-//W3C//DTD SVG 20010904//EN"
 "http://www.w3.org/TR/2001/REC-SVG-20010904/DTD/svg10.dtd">
<svg version="1.0" xmlns="http://www.w3.org/2000/svg"
 width="512.000000pt" height="512.000000pt" viewBox="0 0 512.000000 512.000000"
 preserveAspectRatio="xMidYMid meet">

<g transform="translate(0.000000,512.000000) scale(0.100000,-0.100000)"
fill="#000000" stroke="none">
<path d="M2980 4624 c-117 -14 -330 -54 -1258 -234 -568 -110 -1049 -200
-1069 -200 -57 0 -163 -20 -223 -42 -174 -63 -307 -195 -376 -373 -36 -93 -45
-266 -19 -364 29 -112 100 -234 177 -302 l28 -26 -64 -66 c-233 -242 -231
-626 5 -867 l56 -57 -53 -51 c-103 -100 -171 -251 -181 -402 -11 -179 55 -351
186 -480 42 -42 103 -89 136 -107 58 -30 1561 -518 1695 -549 146 -35 140 -36
1610 301 740 169 1349 311 1353 315 15 13 -33 188 -61 222 -28 33 -77 58 -116
58 -13 0 -586 -129 -1272 -286 -687 -157 -1280 -288 -1320 -291 -39 -3 -102 0
-140 6 -67 12 -1501 464 -1578 498 -53 24 -117 88 -146 148 -36 75 -34 180 3
257 53 109 152 172 272 172 64 0 127 -18 721 -207 359 -115 683 -213 720 -219
38 -6 101 -8 139 -5 63 5 2770 619 2782 631 3 3 -5 46 -17 96 -31 127 -80 180
-165 180 -20 0 -598 -129 -1283 -287 -1193 -274 -1251 -286 -1347 -286 -71 0
-122 6 -175 21 -165 46 -1478 470 -1516 490 -51 26 -110 91 -137 151 -30 66
-29 169 2 239 52 116 178 190 305 179 40 -4 282 -77 721 -218 l660 -213 135 0
135 0 1335 308 c734 169 1342 309 1351 312 15 4 14 13 -5 97 -12 51 -30 104
-40 119 -20 30 -90 68 -127 68 -13 0 -584 -128 -1269 -285 -685 -157 -1276
-288 -1315 -292 -38 -3 -101 0 -140 6 -38 6 -317 89 -620 186 -1024 327 -978
311 -1030 357 -130 114 -140 319 -22 440 54 55 122 88 200 94 60 5 82 -1 584
-170 287 -96 555 -182 595 -191 100 -22 358 -30 488 -16 139 16 256 39 610
121 380 88 908 202 1633 350 318 65 581 120 583 122 5 5 -54 299 -61 306 -2 2
-365 56 -807 119 -793 113 -806 114 -1018 118 -118 2 -231 1 -250 -1z"/>
</g>
</svg>
