<svg width="15" height="15" viewBox="0 0 15 15" fill="none" xmlns="http://www.w3.org/2000/svg">
<path d="M1.40625 0C0.629883 0 0 0.839844 0 1.875C0 2.46484 0.208008 3.01953 0.5625 3.375L6.9375 9.75C7.27148 10.082 7.72852 10.082 8.0625 9.75L14.4375 3.375C14.792 3.01953 15 2.46484 15 1.875C15 0.839844 14.3701 0 13.5938 0H1.40625ZM0 4.375V12.5C0 13.8789 0.84082 15 1.875 15H13.125C14.1592 15 15 13.8789 15 12.5V4.375L8.625 10.75C7.95703 11.418 7.04297 11.418 6.375 10.75L0 4.375Z" fill="#EC5E63"/>
</svg>
