<svg width="15" height="15" viewBox="0 0 15 15" fill="none" xmlns="http://www.w3.org/2000/svg">
<g clip-path="url(#clip0_111_332)">
<path d="M5.68151 12.426C5.60469 12.2525 5.47083 12.235 5.41667 12.235C5.3625 12.235 5.22865 12.2522 5.15573 12.4163L4.95599 12.8657C4.7901 13.2401 4.30417 13.1988 4.18828 12.8045L3.75 11.3259L3.4737 12.2599C3.32031 12.7772 2.89089 13.125 2.40599 13.125H2.08333C1.85312 13.125 1.66667 12.9152 1.66667 12.6562C1.66667 12.3973 1.85312 12.1875 2.08333 12.1875H2.40599C2.53177 12.1875 2.64323 12.0973 2.68307 11.9631L3.15677 10.3623C3.24271 10.0749 3.48073 9.88154 3.75 9.88154C4.01927 9.88154 4.25729 10.0746 4.34297 10.3623L4.70443 11.5822C5.21875 11.1079 6.11224 11.298 6.42318 11.9971C6.4724 12.1078 6.56615 12.1714 6.66693 12.1805V9.77461L10.0003 6.05127V4.6875H6.45833C6.11458 4.6875 5.83333 4.37109 5.83333 3.98438V0H0.625C0.278646 0 0 0.313477 0 0.703125V14.2969C0 14.6865 0.278646 15 0.625 15H9.375C9.72135 15 10 14.6865 10 14.2969V13.125L6.66667 13.1218C6.24687 13.1127 5.87031 12.8499 5.68151 12.426ZM10 3.57129C10 3.38672 9.9349 3.20801 9.81771 3.07617L7.26823 0.205078C7.15104 0.0732422 6.99219 0 6.82552 0H6.66667V3.75H10V3.57129ZM7.5 10.1648V12.1875H9.29661L13.507 7.41855L11.7393 5.42988L7.5 10.1648ZM14.8057 4.90225L13.9758 3.96855C13.7169 3.67734 13.2969 3.67734 13.038 3.96855L12.3284 4.76689L14.0961 6.75557L14.8057 5.95723C15.0648 5.66602 15.0648 5.19346 14.8057 4.90225Z" fill="#EC5E63"/>
</g>
<defs>
<clipPath id="clip0_111_332">
<rect width="15" height="15" fill="white"/>
</clipPath>
</defs>
</svg>
