<svg width="19" height="17" viewBox="0 0 19 17" fill="none" xmlns="http://www.w3.org/2000/svg">
<g clip-path="url(#clip0_192_439)">
<path d="M10.4533 0.597656C10.2785 0.232422 9.90901 0 9.50328 0C9.09755 0 8.73141 0.232422 8.55328 0.597656L6.43228 4.99043L1.69547 5.69434C1.29964 5.7541 0.969776 6.03301 0.847728 6.41484C0.725679 6.79668 0.824637 7.21836 1.10832 7.50059L4.54547 10.9238L3.73401 15.7615C3.66804 16.16 3.83297 16.565 4.15953 16.8008C4.4861 17.0365 4.91821 17.0664 5.27446 16.8771L9.50658 14.6027L13.7387 16.8771C14.095 17.0664 14.5271 17.0398 14.8536 16.8008C15.1802 16.5617 15.3451 16.16 15.2792 15.7615L14.4644 10.9238L17.9015 7.50059C18.1852 7.21836 18.2875 6.79668 18.1621 6.41484C18.0368 6.03301 17.7102 5.7541 17.3144 5.69434L12.5743 4.99043L10.4533 0.597656Z" fill="#FFBC10"/>
</g>
<defs>
<clipPath id="clip0_192_439">
<rect width="19" height="17" fill="white"/>
</clipPath>
</defs>
</svg>
