<svg width="40" height="40" viewBox="0 0 40 40" fill="none" xmlns="http://www.w3.org/2000/svg">
<path d="M0 4.37996V18.0501C0 19.6045 0.612641 21.095 1.70991 22.1923L17.8032 38.2855C20.0892 40.5715 23.7924 40.5715 26.0784 38.2855L38.2855 26.0784C40.5715 23.7924 40.5715 20.0892 38.2855 17.8032L22.1922 1.70994C21.095 0.612673 19.6045 3.17685e-05 18.0501 3.17685e-05H4.38907C1.96594 -0.00911213 0 1.95683 0 4.37996ZM10.2412 7.306C11.0172 7.306 11.7615 7.61428 12.3102 8.16302C12.8589 8.71176 13.1672 9.45601 13.1672 10.2321C13.1672 11.0081 12.8589 11.7523 12.3102 12.3011C11.7615 12.8498 11.0172 13.1581 10.2412 13.1581C9.46513 13.1581 8.72088 12.8498 8.17214 12.3011C7.6234 11.7523 7.31512 11.0081 7.31512 10.2321C7.31512 9.45601 7.6234 8.71176 8.17214 8.16302C8.72088 7.61428 9.46513 7.306 10.2412 7.306Z" fill="white"/>
</svg>
